<svg width="24" height="24" viewBox="0 0 24 24" fill="none" xmlns="http://www.w3.org/2000/svg">
<path d="M18.7266 9.97266C18.8359 9.89062 19 9.97266 19 10.1094V15.6875C19 16.4258 18.3984 17 17.6875 17H6.3125C5.57422 17 5 16.4258 5 15.6875V10.1094C5 9.97266 5.13672 9.89062 5.24609 9.97266C5.875 10.4648 6.66797 11.0664 9.45703 13.0898C10.0312 13.5 11.0156 14.4023 12 14.4023C12.957 14.4023 13.9688 13.5 14.5156 13.0898C17.3047 11.0664 18.0977 10.4648 18.7266 9.97266ZM12 13.5C11.3438 13.5273 10.4414 12.707 9.97656 12.3789C6.33984 9.75391 6.06641 9.50781 5.24609 8.85156C5.08203 8.74219 5 8.55078 5 8.33203V7.8125C5 7.10156 5.57422 6.5 6.3125 6.5H17.6875C18.3984 6.5 19 7.10156 19 7.8125V8.33203C19 8.55078 18.8906 8.74219 18.7266 8.85156C17.9062 9.50781 17.6328 9.75391 13.9961 12.3789C13.5312 12.707 12.6289 13.5273 12 13.5Z" fill="#E2E2E2"/>
</svg>
