<svg width="24" height="24" viewBox="0 0 24 24" fill="none" xmlns="http://www.w3.org/2000/svg">
<path d="M18.5625 13.0078C18.4805 13.3086 18.207 13.5 17.9062 13.5H9.89453L10.0859 14.375H17.4141C17.8242 14.375 18.1523 14.7852 18.043 15.1953L17.9062 15.8516C18.4258 16.0977 18.7812 16.6172 18.7812 17.2188C18.7812 18.0664 18.0703 18.75 17.25 18.75C16.4023 18.75 15.7188 18.0664 15.7188 17.2188C15.7188 16.8086 15.8828 16.4258 16.1562 16.125H10.4414C10.7148 16.4258 10.9062 16.8086 10.9062 17.2188C10.9062 18.0664 10.1953 18.75 9.375 18.75C8.52734 18.75 7.84375 18.0664 7.84375 17.2188C7.84375 16.6719 8.14453 16.1797 8.60938 15.9062L6.66797 6.5H4.78125C4.39844 6.5 4.125 6.22656 4.125 5.84375V5.40625C4.125 5.05078 4.39844 4.75 4.78125 4.75H7.57031C7.87109 4.75 8.14453 4.99609 8.22656 5.29688L8.47266 6.5H19.1914C19.6289 6.5 19.9297 6.91016 19.8477 7.32031L18.5625 13.0078Z" fill="#E2E2E2"/>
</svg>
