<svg width="24" height="24" viewBox="0 0 24 24" fill="none" xmlns="http://www.w3.org/2000/svg">
<path d="M17.3125 5.625C18.0234 5.625 18.625 6.22656 18.625 6.9375V16.5625C18.625 17.3008 18.0234 17.875 17.3125 17.875H7.6875C6.94922 17.875 6.375 17.3008 6.375 16.5625V6.9375C6.375 6.22656 6.94922 5.625 7.6875 5.625H17.3125ZM16.8477 14.0469C16.8477 14.0195 16.8477 13.9922 16.875 13.9375C16.8477 13.7734 16.7656 13.6367 16.6016 13.582L14.6875 12.7617C14.6602 12.7344 14.6055 12.7344 14.5508 12.707C14.4141 12.7344 14.3047 12.7891 14.2227 12.8711L13.375 13.9102C12.0352 13.2812 10.9688 12.2148 10.3398 10.875L11.3789 10.0273C11.4609 9.94531 11.5156 9.83594 11.543 9.69922C11.5156 9.64453 11.5156 9.58984 11.4883 9.5625L10.668 7.64844C10.6133 7.48438 10.4766 7.40234 10.3125 7.375C10.2578 7.40234 10.2305 7.40234 10.2031 7.40234L8.42578 7.8125C8.26172 7.86719 8.125 8.00391 8.125 8.19531C8.125 12.5977 11.6797 16.125 16.0547 16.125C16.2461 16.125 16.4102 16.0156 16.4375 15.8242L16.8477 14.0469Z" fill="#E2E2E2"/>
</svg>
