<svg width="24" height="24" viewBox="0 0 24 24" fill="none" xmlns="http://www.w3.org/2000/svg">
<path d="M18.8086 16.8633C19.0547 17.1367 19.0547 17.5469 18.7812 17.793L18.0156 18.5586C17.7695 18.832 17.3594 18.832 17.0859 18.5586L14.3789 15.8516C14.2422 15.7148 14.1875 15.5508 14.1875 15.3867V14.9219C13.2031 15.6875 12 16.125 10.6875 16.125C7.54297 16.125 5 13.582 5 10.4375C5 7.32031 7.54297 4.75 10.6875 4.75C13.8047 4.75 16.375 7.32031 16.375 10.4375C16.375 11.7773 15.9102 12.9805 15.1719 13.9375H15.6094C15.7734 13.9375 15.9375 14.0195 16.0742 14.1289L18.8086 16.8633ZM10.6875 13.9375C12.6016 13.9375 14.1875 12.3789 14.1875 10.4375C14.1875 8.52344 12.6016 6.9375 10.6875 6.9375C8.74609 6.9375 7.1875 8.52344 7.1875 10.4375C7.1875 12.3789 8.74609 13.9375 10.6875 13.9375Z" fill="#E2E2E2"/>
</svg>
