<svg width="155" height="39" viewBox="0 0 155 39" fill="none" xmlns="http://www.w3.org/2000/svg">
<path d="M9.87229 7.30515V20.8227H4.47897V7.30515H0.355713V1.85645H13.9955V7.30515H9.87229Z" fill="#1D1D1B"/>
<path d="M26.191 9.2367V13.4572H22.6726C22.321 13.4263 21.9685 13.5039 21.6587 13.6805C21.5544 13.7695 21.4726 13.8839 21.4205 14.0137C21.3684 14.1435 21.3476 14.2847 21.3598 14.4249C21.3394 14.5721 21.3566 14.7223 21.4097 14.8602C21.4628 14.9982 21.5499 15.1189 21.6622 15.2102C22.0603 15.3677 22.4867 15.4312 22.9109 15.3963H26.5361V20.8152H22.3026C20.3103 20.8152 18.7877 20.319 17.7346 19.3265C16.6816 18.334 16.1539 16.8937 16.1515 15.0055V7.56189C16.1515 5.74938 16.6496 4.33882 17.6457 3.34138C18.6418 2.34394 20.0435 1.85266 21.8508 1.85266H26.5361V7.30137H23.0995C22.1674 7.30137 21.7049 7.614 21.7049 8.2467C21.6898 8.39427 21.7126 8.54337 21.7707 8.67874C21.8288 8.81411 21.9203 8.93089 22.0358 9.01712C22.406 9.19116 22.8121 9.26537 23.2169 9.23298L26.191 9.2367Z" fill="#1D1D1B"/>
<path d="M42.435 11.5553L48.0774 11.7079C47.705 14.7623 46.6935 17.1194 45.0428 18.7793C43.392 20.4392 41.2385 21.2729 38.5822 21.2804C37.3266 21.3128 36.0779 21.0775 34.9121 20.5886C33.7463 20.0997 32.6879 19.3676 31.8014 18.4369C30.9095 17.52 30.2071 16.4212 29.7377 15.2087C29.2683 13.9961 29.042 12.6956 29.0727 11.3878C29.0443 10.0637 29.2767 8.74769 29.7553 7.52155C30.2339 6.29542 30.9485 5.18542 31.8547 4.2606C32.7504 3.31681 33.8206 2.57394 34.9999 2.07737C36.1792 1.58081 37.4429 1.34095 38.7138 1.37248C39.9565 1.33856 41.1925 1.57325 42.3446 2.06187C43.4966 2.55049 44.5399 3.28253 45.4092 4.21221C46.6472 5.51732 47.5236 7.33728 48.0383 9.67208L42.2607 10.074C41.6132 7.99976 40.387 6.96262 38.5822 6.96262C38.05 6.94732 37.5209 7.05096 37.0301 7.26661C36.5394 7.48225 36.0982 7.80494 35.7361 8.21314C34.9771 9.07846 34.5745 10.2217 34.6154 11.3953C34.5969 11.959 34.6848 12.5209 34.874 13.0491C35.0632 13.5772 35.3501 14.0612 35.7183 14.4732C36.4486 15.2255 37.4252 15.6591 38.4498 15.6861C39.4745 15.713 40.4706 15.3313 41.2361 14.6184C41.9097 13.9087 42.3093 12.8877 42.435 11.5553Z" fill="#1D1D1B"/>
<path d="M50.799 20.8226V8.51091C50.799 6.35475 51.4168 4.62784 52.6525 3.33017C53.8881 2.03251 55.5329 1.38492 57.5868 1.3874C59.6289 1.3874 61.1931 2.01638 62.2793 3.27434C63.3656 4.53231 63.9075 6.34359 63.9051 8.70817V20.8226H58.5154V8.70817C58.5154 7.54945 58.1217 6.97009 57.3343 6.97009C56.5468 6.97009 56.1721 7.54945 56.2101 8.70817V20.8226H50.799Z" fill="#1D1D1B"/>
<path d="M76.3211 1.38746C77.556 1.37141 78.7807 1.62342 79.9178 2.12757C81.0549 2.63172 82.0797 3.37705 82.9275 4.31651C84.029 5.47872 84.8399 6.9069 85.2884 8.47483C85.7369 10.0428 85.8094 11.7021 85.4993 13.3063C85.1892 14.9104 84.5061 16.41 83.5105 17.6724C82.5148 18.9348 81.2372 19.9211 79.7906 20.5442C78.344 21.1674 76.7729 21.4081 75.2163 21.2451C73.6596 21.0822 72.1653 20.5205 70.8654 19.6099C69.5655 18.6993 68.5001 17.4676 67.7633 16.0239C67.0265 14.5801 66.641 12.9687 66.6409 11.3321C66.6156 10.014 66.8524 8.70486 67.3362 7.48757C67.82 6.27028 68.5403 5.17143 69.4514 4.26068C70.3517 3.32137 71.4246 2.58254 72.6052 2.08873C73.7859 1.59492 75.0499 1.35637 76.3211 1.38746ZM76.1646 6.97015C75.6335 6.96294 75.107 7.07328 74.6196 7.29393C74.1321 7.51458 73.6948 7.84054 73.3363 8.25044C72.5832 9.08381 72.1636 10.1871 72.1636 11.3339C72.1636 12.4808 72.5832 13.5841 73.3363 14.4175C73.7017 14.8177 74.1408 15.1363 74.6273 15.354C75.1137 15.5717 75.6373 15.6839 76.1663 15.6839C76.6954 15.6839 77.219 15.5717 77.7054 15.354C78.1918 15.1363 78.631 14.8177 78.9964 14.4175C79.7418 13.5771 80.156 12.473 80.156 11.3265C80.156 10.1801 79.7418 9.07596 78.9964 8.23555C78.6359 7.82826 78.1974 7.50505 77.7094 7.28701C77.2215 7.06897 76.6951 6.961 76.1646 6.97015Z" fill="#1D1D1B"/>
<path d="M88.3921 1.85645H93.7854V13.1446C93.7854 14.023 93.9206 14.611 94.191 14.9013C94.4614 15.1916 94.995 15.3405 95.7919 15.3405H96.0552V20.8413H94.6321C92.666 20.8413 91.1338 20.2409 90.0357 19.04C88.9376 17.8391 88.3885 16.1742 88.3885 14.0453L88.3921 1.85645Z" fill="#1D1D1B"/>
<path d="M103.825 1.85645V20.8376H98.4316V1.85645H103.825Z" fill="#1D1D1B"/>
<path d="M115.668 10.1931H120.809C121.854 11.4578 122.442 13.066 122.47 14.7375C122.485 15.6159 122.319 16.4875 121.983 17.2928C121.648 18.0982 121.15 18.8184 120.524 19.4046C119.225 20.6647 117.507 21.3432 115.736 21.2953C114.55 21.3085 113.375 21.0526 112.293 20.545C111.211 20.0374 110.247 19.2902 109.467 18.355C107.754 16.4148 106.831 13.8533 106.892 11.2129C106.892 8.39924 107.766 6.05699 109.514 4.18616C110.36 3.26866 111.38 2.54538 112.508 2.06228C113.636 1.57918 114.848 1.34681 116.067 1.37993C117.082 1.40226 118.087 1.59451 119.044 1.94937V7.58789C118.322 7.20427 117.528 6.99085 116.718 6.96263C116.148 6.93983 115.58 7.03751 115.048 7.24984C114.515 7.46216 114.029 7.78475 113.619 8.19826C112.86 9.07102 112.433 10.2037 112.416 11.3833C112.4 12.5628 112.796 13.708 113.53 14.6035C113.929 15.0058 114.403 15.3181 114.921 15.521C115.44 15.724 115.994 15.8132 116.547 15.7833C117.351 15.7833 117.753 15.5414 117.753 15.0389C117.753 14.6667 117.49 14.4806 116.956 14.4806H115.668V10.1931Z" fill="#1D1D1B"/>
<path d="M132.097 8.63749V13.6396H130.596V20.8226H125.203V1.84149H130.596V8.6226L132.097 8.63749ZM138.391 1.85638V20.8375H133.011V1.85638H138.391Z" fill="#1D1D1B"/>
<path d="M150.462 7.30515V20.8227H145.072V7.30515H140.941V1.85645H154.578V7.30515H150.462Z" fill="#1D1D1B"/>
<path d="M9.50946 6.59794V20.1155H4.1197V6.59794H0V1.15295H13.6256V6.59794H9.50946Z" fill="#77B943"/>
<path d="M25.8317 8.52955V12.7501H22.3133C21.9605 12.7189 21.6068 12.7965 21.2958 12.9734C21.1915 13.0624 21.1097 13.1768 21.0576 13.3066C21.0055 13.4364 20.9847 13.5775 20.9969 13.7177C20.9769 13.8652 20.9946 14.0157 21.0484 14.1537C21.1021 14.2916 21.19 14.4122 21.3029 14.503C21.7008 14.6612 22.1273 14.7248 22.5516 14.6891H26.1768V20.1081H21.9397C19.9474 20.1081 18.4248 19.6118 17.3717 18.6193C16.3187 17.6269 15.7922 16.189 15.7922 14.3058V6.86219C15.7922 5.04967 16.2902 3.63911 17.2864 2.64167C18.2825 1.64423 19.6842 1.15295 21.4879 1.15295H26.1768V6.59794H22.7366C21.8081 6.59794 21.342 6.91057 21.342 7.54327C21.327 7.69084 21.3497 7.83995 21.4078 7.97532C21.4659 8.11069 21.5574 8.22746 21.6729 8.31369C22.0445 8.48758 22.4517 8.56178 22.8576 8.52955H25.8317Z" fill="#77B943"/>
<path d="M42.0721 10.8482L47.7145 11.0008C47.3445 14.0551 46.333 16.4123 44.6799 18.0722C43.0268 19.7321 40.8732 20.5707 38.2193 20.5881C36.9641 20.6218 35.7155 20.387 34.5502 19.8981C33.3848 19.4091 32.3271 18.6763 31.442 17.7447C30.5491 16.8285 29.846 15.7299 29.3766 14.5172C28.9071 13.3044 28.6814 12.0036 28.7134 10.6956C28.6843 9.3714 28.9164 8.05516 29.395 6.82892C29.8737 5.60269 30.5887 4.49277 31.4954 3.56835C32.3908 2.6242 33.4609 1.88111 34.6403 1.38451C35.8197 0.887918 37.0835 0.648268 38.3545 0.68023C39.5961 0.645636 40.8312 0.879303 41.9826 1.36663C43.134 1.85395 44.1769 2.58446 45.0463 3.51252C46.2843 4.81762 47.1607 6.63758 47.6754 8.97239L41.8978 9.37434C41.2527 7.30254 40.0265 6.2654 38.2193 6.26292C37.6871 6.2469 37.1577 6.35021 36.6668 6.5659C36.176 6.78159 35.7349 7.10467 35.3732 7.51344C34.613 8.37818 34.2091 9.52147 34.249 10.6956C34.2127 11.8338 34.6093 12.9407 35.3518 13.7735C36.0822 14.5258 37.0587 14.9594 38.0834 14.9864C39.108 15.0133 40.1041 14.6316 40.8697 13.9187C41.5492 13.2041 41.9476 12.1806 42.0721 10.8482Z" fill="#77B943"/>
<path d="M50.436 20.1156V7.80767C50.436 5.64903 51.0539 3.92087 52.2895 2.6232C53.5252 1.32554 55.17 0.677946 57.2239 0.680427C59.2707 0.680427 60.8361 1.30941 61.92 2.56738C63.0038 3.82535 63.5458 5.63662 63.5458 8.0012V20.1156H58.1525V8.0012C58.1525 6.84372 57.7611 6.26312 56.9713 6.26312C56.1816 6.26312 55.8293 6.84372 55.8293 8.0012V20.1156H50.436Z" fill="#77B943"/>
<path d="M75.9618 0.680205C77.1967 0.664387 78.4213 0.916499 79.5584 1.42063C80.6954 1.92477 81.7203 2.66999 82.5683 3.60926C83.6697 4.77147 84.4806 6.19965 84.9291 7.76758C85.3777 9.3355 85.4501 10.9949 85.14 12.599C84.8299 14.2032 84.1468 15.7027 83.1512 16.9651C82.1555 18.2275 80.8779 19.2139 79.4313 19.837C77.9847 20.4601 76.4137 20.7008 74.857 20.5379C73.3004 20.3749 71.806 19.8133 70.5061 18.9026C69.2063 17.992 68.1408 16.7604 67.404 15.3166C66.6672 13.8729 66.2817 12.2615 66.2816 10.6248C66.2565 9.30715 66.493 7.99835 66.9762 6.78117C67.4593 5.564 68.1786 4.46492 69.0885 3.55343C69.9893 2.61366 71.0627 1.87457 72.244 1.38074C73.4253 0.886923 74.69 0.648614 75.9618 0.680205ZM75.8017 6.2629C75.2707 6.25593 74.7443 6.36638 74.2569 6.58701C73.7695 6.80764 73.3321 7.13348 72.9734 7.54319C72.2219 8.37741 71.8034 9.48041 71.8034 10.6267C71.8034 11.773 72.2219 12.876 72.9734 13.7102C73.3388 14.1099 73.7778 14.428 74.2639 14.6453C74.7499 14.8627 75.2731 14.9747 75.8017 14.9747C76.3303 14.9747 76.8535 14.8627 77.3396 14.6453C77.8257 14.428 78.2647 14.1099 78.63 13.7102C79.3777 12.871 79.7935 11.7665 79.7935 10.6193C79.7935 9.47204 79.3777 8.36749 78.63 7.52831C78.2701 7.1213 77.8321 6.79824 77.3448 6.5802C76.8575 6.36216 76.3317 6.25404 75.8017 6.2629Z" fill="#77B943"/>
<path d="M88.0327 1.15295H93.4225V12.4188C93.4225 13.2972 93.5577 13.8852 93.828 14.1755C94.0984 14.4658 94.632 14.6333 95.429 14.6333H95.6993V20.1341H94.2763C92.3125 20.1341 90.7815 19.5337 89.6834 18.3328C88.5853 17.1319 88.0363 15.467 88.0363 13.3381L88.0327 1.15295Z" fill="#BFBAA7"/>
<path d="M103.462 1.15295V20.1155H98.0723V1.15295H103.462Z" fill="#BFBAA7"/>
<path d="M115.309 9.486H120.446C121.491 10.7507 122.079 12.3588 122.107 14.0303C122.123 14.9089 121.958 15.7808 121.622 16.5863C121.286 17.3918 120.788 18.1119 120.161 18.6974C118.864 19.9599 117.144 20.6389 115.373 20.5881C114.188 20.603 113.014 20.3485 111.932 19.8421C110.851 19.3358 109.887 18.5896 109.108 17.6553C107.394 15.7155 106.469 13.154 106.529 10.5132C106.529 7.69953 107.404 5.35729 109.154 3.48647C110 2.56841 111.02 1.84476 112.148 1.36162C113.277 0.878477 114.489 0.646419 115.707 0.680231C116.721 0.697849 117.725 0.885069 118.681 1.23478V6.8733C117.96 6.4902 117.167 6.2768 116.358 6.24804C115.788 6.22537 115.22 6.32311 114.687 6.53541C114.154 6.74771 113.667 7.07022 113.256 7.48367C112.498 8.35688 112.071 9.48981 112.055 10.6694C112.039 11.8489 112.436 12.9939 113.171 13.8889C113.569 14.2918 114.041 14.6047 114.56 14.8083C115.078 15.0119 115.631 15.1018 116.184 15.0724C116.992 15.0724 117.394 14.8268 117.394 14.328C117.394 13.9559 117.127 13.7698 116.597 13.7698H115.309V9.486Z" fill="#BFBAA7"/>
<path d="M131.734 7.93406V12.9362H130.233V20.1192H124.843V1.15295H130.233V7.93406H131.734ZM138.035 1.15295V20.1155H132.652V1.15295H138.035Z" fill="#BFBAA7"/>
<path d="M150.102 6.59794V20.1155H144.709V6.59794H140.578V1.15295H154.218V6.59794H150.102Z" fill="#BFBAA7"/>
<path d="M26.9738 32.1257L26.9987 32.0699L27.1018 31.9322L27.2512 31.7387C27.5893 31.4037 27.8977 31.0375 28.1727 30.6445C28.4976 30.1773 28.7935 29.6887 29.0585 29.1818C29.1021 29.1158 29.1425 29.0475 29.1795 28.9771C29.2222 28.8952 29.272 28.791 29.3253 28.6645C29.3262 28.6535 29.3247 28.6425 29.321 28.6322C29.3173 28.6219 29.3115 28.6126 29.304 28.6049C29.2948 28.5966 29.284 28.5903 29.2724 28.5864C29.2608 28.5826 29.2485 28.5813 29.2364 28.5826C29.1928 28.5855 29.1498 28.5943 29.1083 28.6087C29.0641 28.6209 29.0188 28.6284 28.9731 28.631H28.1406C28.1051 28.631 28.0481 28.631 27.9663 28.631H27.792L27.6675 28.5752L27.5572 28.5231C27.5119 28.5085 27.4704 28.483 27.4362 28.4486C27.4225 28.4346 27.4117 28.4178 27.4044 28.3992C27.397 28.3807 27.3933 28.3608 27.3935 28.3407C27.3834 28.1099 27.4135 27.8791 27.4825 27.6596C27.543 27.5033 27.6319 27.4251 27.7564 27.4251C27.8809 27.4251 27.9983 27.4251 28.1122 27.4251C28.2101 27.4345 28.3075 27.4494 28.4039 27.4698L28.5889 27.4288C28.6908 27.4224 28.793 27.4224 28.8949 27.4288C28.9597 27.4344 29.0239 27.4456 29.087 27.4623L29.2577 27.4251L29.4392 27.3879L29.6597 27.4549C29.8127 27.4363 29.9799 27.2093 30.1542 26.7738C30.3286 26.3384 30.51 26.1225 30.7163 26.1225C30.7621 26.1192 30.808 26.1269 30.8506 26.145C30.8931 26.163 30.9311 26.191 30.9618 26.2267C31.0242 26.3145 31.0545 26.4228 31.0472 26.5319C31.0403 26.6763 31.0102 26.8185 30.9583 26.9525C30.9108 27.0798 30.8762 27.2121 30.8551 27.347C30.8657 27.3664 30.8776 27.3851 30.8907 27.4028C30.9102 27.4304 30.9329 27.4554 30.9583 27.4772C30.9732 27.4879 30.986 27.5017 30.9958 27.5177C31.0055 27.5337 31.0121 27.5516 31.0152 27.5703C31.0274 27.6239 31.0334 27.6789 31.033 27.734C31.0365 27.9494 31.0234 28.1647 30.9938 28.3779C30.9725 28.5268 30.9334 28.6049 30.88 28.6087L30.4282 28.7054C30.4282 28.7538 30.4282 28.8096 30.3962 28.8766C30.3641 28.9436 30.3641 29.0218 30.3428 29.1111C30.2681 29.3418 30.1827 29.6359 30.0902 29.9932C29.9977 30.3505 29.891 30.771 29.7771 31.2586C29.706 31.6307 29.6526 31.962 29.6135 32.2002C29.5857 32.3614 29.5667 32.5242 29.5566 32.6877C29.5522 32.746 29.5646 32.8043 29.5921 32.8552C29.6021 32.8733 29.6167 32.8882 29.6343 32.8981C29.6519 32.9079 29.6718 32.9124 29.6918 32.911C29.7965 32.8589 29.8936 32.7912 29.9799 32.7101C30.1436 32.5761 30.3748 32.3751 30.6737 32.1109L30.9334 32.751C30.8751 32.8157 30.8121 32.8754 30.7448 32.9297C30.6541 33.0097 30.5591 33.0843 30.4602 33.153C30.408 33.2137 30.3521 33.2708 30.293 33.3242C30.229 33.3874 30.1542 33.4582 30.076 33.5438C29.9977 33.6294 29.9159 33.7261 29.8412 33.8192C29.7665 33.9122 29.6846 34.0053 29.6028 34.0909C29.5148 34.1957 29.4101 34.2839 29.2933 34.3514C29.2043 34.4008 29.1058 34.4288 29.0051 34.4333C28.9244 34.4388 28.8434 34.4253 28.7683 34.3937C28.6932 34.3621 28.6258 34.3133 28.5711 34.2509C28.464 34.0915 28.4137 33.898 28.4288 33.7038C28.4288 33.4321 28.4288 33.2013 28.4537 33.0041C28.464 32.842 28.4939 32.6819 28.5427 32.5277C28.5427 32.4905 28.5711 32.457 28.5818 32.4309C28.584 32.3686 28.5899 32.3064 28.5996 32.2448C28.5996 32.163 28.6316 32.0736 28.6494 31.9657C28.6743 31.7833 28.7027 31.5935 28.7348 31.4223L28.8877 31.0502C28.8877 31.0278 28.87 31.0055 28.8344 30.9869L28.7668 31.0278C28.6913 31.1541 28.6043 31.2726 28.5071 31.3814C28.388 31.5126 28.2621 31.6369 28.13 31.7536L27.4398 32.4421C27.4167 32.4782 27.3917 32.513 27.3651 32.5463C27.3295 32.5947 27.2904 32.6505 27.2477 32.7212C27.2228 32.6654 27.1979 32.5947 27.1623 32.5091C27.1267 32.4235 27.0947 32.323 27.0591 32.2151C27.0528 32.1873 27.042 32.1609 27.0271 32.1369C27.0098 32.131 26.9919 32.1272 26.9738 32.1257Z" fill="#1D1D1B"/>
<path d="M30.6522 32.1257L30.8799 31.9173L31.0044 31.787C31.0675 31.7249 31.1258 31.6577 31.1787 31.586C31.2165 31.5351 31.2411 31.4749 31.2499 31.4111C31.2878 31.2548 31.3341 31.0575 31.3886 30.8193C31.442 30.5849 31.5132 30.3094 31.595 30.0005C31.6341 29.9075 31.6804 29.7921 31.7266 29.6507C31.7729 29.5093 31.8227 29.3492 31.876 29.1743C31.9231 28.9573 31.9898 28.7454 32.0753 28.5416C32.1486 28.3627 32.2367 28.1909 32.3385 28.028C32.3754 27.9801 32.4065 27.9276 32.431 27.8717C32.463 27.8084 32.4951 27.734 32.5271 27.6521C32.5635 27.562 32.6063 27.4749 32.6551 27.3916L32.8437 27.0417C33.0251 26.7626 33.1995 26.5244 33.324 26.3234C33.4485 26.1224 33.573 25.9512 33.6797 25.847C33.8398 25.646 33.9999 25.4748 34.16 25.285C34.3201 25.0952 34.4838 24.9501 34.6474 24.8049C34.7678 24.692 34.899 24.5923 35.0387 24.5072C35.1195 24.4548 35.2109 24.4229 35.3056 24.4141C35.3574 24.4568 35.4019 24.5084 35.4372 24.5667C35.469 24.5721 35.5014 24.5721 35.5332 24.5667C35.5841 24.5632 35.6349 24.5755 35.6792 24.6019C35.7235 24.6284 35.7593 24.6679 35.7823 24.7156C35.844 24.8486 35.8722 24.996 35.8641 25.1436C35.8624 25.1988 35.8553 25.2537 35.8428 25.3074C35.8428 25.3743 35.825 25.4562 35.7894 25.553C35.7578 25.5885 35.7357 25.6322 35.7254 25.6795C35.7254 25.7316 35.7005 25.78 35.6898 25.8321C35.6866 25.8882 35.6807 25.9441 35.672 25.9996C35.6627 26.0425 35.6509 26.0848 35.6364 26.1262C35.5795 26.2341 35.519 26.3718 35.4514 26.5318C35.3838 26.6919 35.3162 26.878 35.238 27.0901C35.1953 27.1683 35.1383 27.2725 35.0743 27.4027C35.0103 27.533 34.9285 27.6744 34.836 27.8345L34.6652 28.162C34.5976 28.296 34.5087 28.4485 34.4019 28.6198C34.3675 28.6973 34.3219 28.7688 34.2667 28.8319L34.0391 29.0961C33.9761 29.2275 33.901 29.3522 33.8149 29.4683C33.694 29.6507 33.5232 29.8852 33.3062 30.1717C33.1995 30.3132 33.0643 30.4918 32.8935 30.704C32.7227 30.9161 32.5377 31.1692 32.3101 31.4483C32.2282 31.7944 32.1642 32.1034 32.1215 32.375C32.0821 32.6086 32.0607 32.8451 32.0575 33.0822C32.0558 33.1411 32.0618 33.1999 32.0753 33.2571C32.0753 33.298 32.1073 33.3167 32.1393 33.3167C32.167 33.2756 32.1993 33.2382 32.2354 33.205C32.2815 33.1601 32.3243 33.1116 32.3634 33.0599C32.4834 32.9307 32.5831 32.7825 32.6587 32.6207C32.7725 32.4085 32.9006 32.1331 33.0465 31.7944C33.1483 31.5511 33.2672 31.316 33.4022 31.091C33.4643 30.9734 33.5505 30.8717 33.6548 30.7933L33.8896 30.6891L34.007 30.6407C34.0365 30.6365 34.0665 30.6365 34.096 30.6407C34.129 30.6439 34.1606 30.6558 34.188 30.6754C34.2154 30.6949 34.2376 30.7214 34.2525 30.7523C34.3097 30.8458 34.3507 30.9491 34.3735 31.0575C34.4304 31.292 34.4766 31.4744 34.5122 31.6009C34.5478 31.7274 34.5691 31.8056 34.5727 31.8279C34.6165 31.9468 34.6888 32.0519 34.7826 32.1331C34.8676 32.1996 34.9718 32.2338 35.0779 32.2299C35.2131 32.2076 35.3767 32.1741 35.5617 32.1331C35.5973 32.2262 35.64 32.3267 35.6862 32.4309L35.8285 32.7733L35.5048 32.9891L35.1846 33.1976C35.0881 33.2457 34.9848 33.2771 34.8786 33.2906C34.7243 33.3132 34.5685 33.3231 34.4126 33.3204C34.2829 33.3231 34.1551 33.2871 34.0442 33.2165C33.9333 33.146 33.8439 33.0439 33.7865 32.9221C33.637 32.6542 33.5481 32.5239 33.5161 32.5314H33.4414L33.2172 32.8142C33.1425 32.911 33.0643 33.0152 32.9896 33.1194C32.9294 33.2485 32.8605 33.3729 32.7832 33.4916C32.6943 33.6293 32.5876 33.7856 32.4666 33.9494C32.3509 34.1015 32.221 34.2411 32.0788 34.3662C32.0011 34.4443 31.9012 34.4939 31.7942 34.5076C31.6603 34.5118 31.5267 34.4916 31.3993 34.4481C31.359 34.4353 31.3223 34.4123 31.2925 34.3811C31.2628 34.35 31.2408 34.3116 31.2286 34.2694C31.1752 34.0126 31.1361 33.7856 31.1076 33.5921C31.0816 33.4309 31.0673 33.2679 31.0649 33.1045C31.0608 33.0674 31.0608 33.03 31.0649 32.9929V32.8998C31.0649 32.8403 31.0934 32.777 31.1111 32.7063C31.1171 32.6895 31.1171 32.671 31.1111 32.6542C31.0927 32.6474 31.0726 32.6474 31.0542 32.6542L31.0009 32.7137C30.9728 32.7432 30.9418 32.7694 30.9084 32.7919C30.9084 32.7323 30.8586 32.6467 30.8159 32.5425C30.7732 32.4383 30.7234 32.2671 30.6522 32.1257ZM34.9676 25.7056C34.9213 25.7056 34.8217 25.7986 34.6759 25.981C34.4778 26.2401 34.2925 26.5096 34.1209 26.7886C33.9892 26.9896 33.8647 27.1869 33.7402 27.3841L33.3845 27.9647C33.3385 28.014 33.3001 28.0705 33.2706 28.1322C33.2466 28.1858 33.2345 28.2443 33.235 28.3034C33.1461 28.5639 33.0572 28.8058 32.9753 29.0478C32.8935 29.2897 32.8295 29.4832 32.7797 29.6172C32.7299 29.7512 32.6978 29.8331 32.6872 29.8554L32.7227 29.8889C32.8078 29.811 32.8831 29.7222 32.9469 29.6246C33.0358 29.5204 33.1425 29.3827 33.2706 29.2115C33.3987 29.0403 33.5374 28.8393 33.6975 28.6198C33.8826 28.3642 34.0468 28.0927 34.1885 27.8084C34.3592 27.4809 34.5407 27.1087 34.7328 26.6919C34.8466 26.4611 34.9285 26.275 34.9818 26.1373C35.0257 26.0449 35.0545 25.9456 35.0672 25.8433C35.0737 25.8177 35.0737 25.7907 35.0672 25.7651C35.0676 25.7526 35.065 25.7401 35.0595 25.7289C35.0541 25.7177 35.046 25.7081 35.036 25.701C35.0261 25.694 35.0146 25.6897 35.0026 25.6885C34.9907 25.6873 34.9786 25.6894 34.9676 25.6944V25.7056Z" fill="#1D1D1B"/>
<path d="M35.5262 32.1257C35.5864 32.0214 35.6555 31.923 35.7325 31.8317C35.8301 31.7188 35.9372 31.6154 36.0527 31.5228C36.0527 31.4297 36.0776 31.3367 36.0918 31.2474C36.1061 31.158 36.1132 31.065 36.1203 30.9719C36.1349 30.8948 36.1551 30.8189 36.1808 30.7449C36.2092 30.6556 36.2413 30.5588 36.2768 30.4583C36.3124 30.3578 36.3729 30.2276 36.4405 30.0862C36.5202 29.9092 36.6105 29.7377 36.7109 29.5725C36.8034 29.4683 36.8994 29.3492 37.0026 29.2227L37.3085 28.8505C37.358 28.8082 37.4104 28.7697 37.4651 28.7351C37.5262 28.6977 37.5845 28.6554 37.6394 28.6086C37.6979 28.5894 37.7572 28.5732 37.8173 28.5602C37.8899 28.5448 37.9638 28.5373 38.0378 28.5379C38.1292 28.5365 38.2203 28.549 38.3082 28.5751C38.3734 28.596 38.4314 28.6361 38.4754 28.6905C38.5139 28.7407 38.544 28.7973 38.5644 28.858C38.5976 28.9468 38.6261 29.0375 38.6498 29.1297C38.6498 29.2227 38.6782 29.3232 38.696 29.4348C38.696 29.4088 38.696 29.4348 38.6711 29.4721C38.6462 29.5093 38.632 29.6023 38.6035 29.714L38.543 29.9373C38.4473 30.2178 38.3052 30.4786 38.1232 30.7077C37.8523 31.0607 37.56 31.3951 37.2481 31.7089C37.2144 31.7433 37.1867 31.7836 37.1662 31.828C37.1449 31.877 37.1339 31.9304 37.1342 31.9843C37.1332 32.0726 37.1502 32.1601 37.184 32.2411C37.2139 32.3109 37.2636 32.3693 37.3263 32.4086C37.3789 32.4458 37.4364 32.4747 37.4971 32.4942C37.587 32.5243 37.6784 32.5492 37.771 32.5686C37.9313 32.5563 38.0899 32.5263 38.2442 32.4793C38.3746 32.4359 38.5009 32.3799 38.6213 32.3118L38.728 32.2522C38.7798 32.224 38.8287 32.1904 38.8739 32.1518L39.0269 32.5239C39.0743 32.6331 39.1099 32.7262 39.1336 32.8031C38.926 33.0248 38.6957 33.222 38.447 33.3911C38.2779 33.5097 38.0811 33.5779 37.8778 33.5884C37.8028 33.6351 37.7211 33.6691 37.6358 33.6889C37.5303 33.7095 37.423 33.7195 37.3157 33.7186C37.1667 33.7209 37.0186 33.6957 36.8781 33.6442C36.7585 33.5964 36.6512 33.5199 36.565 33.4209C36.5101 33.3604 36.4645 33.2913 36.4298 33.2162C36.3871 33.1269 36.3409 33.0189 36.2911 32.8924C36.2616 32.8124 36.2234 32.7362 36.1772 32.6654C36.1646 32.6445 36.1473 32.6272 36.1268 32.6149C36.1064 32.6026 36.0834 32.5956 36.0598 32.5946C36.0149 32.5967 35.9721 32.6151 35.9389 32.6467C35.8842 32.6923 35.8352 32.7448 35.793 32.8031C35.7685 32.7151 35.7376 32.6293 35.7005 32.5463C35.6543 32.3937 35.5973 32.2671 35.5262 32.1257ZM37.6607 29.8666C37.5611 29.8666 37.4331 30.0006 37.2694 30.2685C37.1427 30.4391 37.0583 30.6398 37.0239 30.8528C37.0168 30.872 37.0168 30.8932 37.0239 30.9124C37.047 30.9209 37.0721 30.9209 37.0951 30.9124C37.1196 30.9117 37.1435 30.9041 37.1641 30.8903C37.1848 30.8766 37.2015 30.8572 37.2125 30.8342L37.3014 30.6816C37.3515 30.6349 37.399 30.5852 37.4437 30.5328L37.5789 30.3765C37.6278 30.3183 37.6685 30.2531 37.6999 30.1829C37.7247 30.1216 37.738 30.0559 37.739 29.9894C37.7393 29.9548 37.7294 29.921 37.7105 29.8926C37.7045 29.8822 37.6962 29.8734 37.6863 29.8669C37.6764 29.8605 37.6652 29.8565 37.6536 29.8554L37.6607 29.8666Z" fill="#1D1D1B"/>
<path d="M42.314 31.4745C42.3015 31.4347 42.2944 31.3934 42.2927 31.3516C42.2911 31.3231 42.2911 31.2945 42.2927 31.266C42.2898 31.1336 42.3079 31.0016 42.346 30.8753C42.3787 30.7719 42.4334 30.6777 42.5061 30.5998C42.5468 30.5653 42.5925 30.5377 42.6413 30.518C42.7125 30.4807 42.8085 30.4361 42.9295 30.384C43.0064 30.3499 43.0755 30.2992 43.1323 30.2351C43.1836 30.1773 43.2127 30.1018 43.2141 30.023C43.234 29.9458 43.2614 29.8709 43.2959 29.7997C43.3362 29.7178 43.3825 29.6284 43.4347 29.5317C43.4963 29.3748 43.5498 29.2145 43.5948 29.0516C43.6849 28.7563 43.8094 28.3283 43.9683 27.7676C44.0045 27.6163 44.0484 27.4672 44.0999 27.3209C44.1426 27.1944 44.1818 27.0902 44.2138 27.0009C44.3003 26.728 44.4199 26.4679 44.5695 26.2267C44.6597 26.1027 44.7273 26.0022 44.7723 25.9253V25.888L44.566 25.5494L44.8257 25.2367L45.1565 25.166C45.2241 25.166 45.2846 25.0916 45.338 24.9725C45.4139 24.8251 45.5124 24.6919 45.6297 24.578C45.682 24.5529 45.732 24.523 45.7791 24.4887C45.8467 24.4403 45.9357 24.3733 46.0424 24.284C46.1165 24.2191 46.1963 24.1618 46.2807 24.1128C46.327 24.0821 46.3793 24.063 46.4337 24.0569C46.5248 24.0494 46.6155 24.0758 46.6899 24.1314C46.7164 24.1568 46.7375 24.1879 46.7516 24.2226C46.7657 24.2573 46.7725 24.2947 46.7717 24.3323C46.7525 24.4911 46.7003 24.6436 46.6187 24.779C46.5357 24.9123 46.4834 25.0638 46.4657 25.2218C46.4645 25.2624 46.4744 25.3024 46.4942 25.3372C46.5125 25.3633 46.537 25.3839 46.5654 25.3968L47.3623 25.8471C47.405 25.8657 47.4441 25.9402 47.4797 26.0667C47.5229 26.2386 47.5514 26.4142 47.565 26.5915C47.5935 26.7738 47.6149 26.9301 47.6291 27.053C47.6416 27.1505 47.6487 27.2486 47.6504 27.347C47.622 27.5442 47.5899 27.7489 47.5579 27.9499C47.6042 28.2104 47.6504 28.4821 47.7038 28.7687C47.6789 29.0441 47.6504 29.3195 47.6184 29.6024C47.6183 29.6284 47.6244 29.654 47.6362 29.6768C47.6409 29.6869 47.6479 29.6956 47.6566 29.7021C47.6653 29.7086 47.6754 29.7127 47.686 29.7141C47.7473 29.7129 47.8068 29.7354 47.8532 29.7773C47.8726 29.797 47.8877 29.8208 47.8975 29.8471C47.9073 29.8735 47.9116 29.9017 47.9101 29.9299C47.9135 29.9977 47.9013 30.0653 47.8746 30.1272C47.8509 30.1748 47.8152 30.2147 47.7714 30.2425L47.6362 30.3393C47.6109 30.3611 47.5872 30.3848 47.565 30.41L47.654 30.8418L47.533 31.828C47.5315 31.935 47.5243 32.0419 47.5117 32.1481C47.5117 32.2784 47.4797 32.4272 47.4548 32.5984C47.4299 32.7696 47.3765 32.8292 47.3551 32.9111C47.3388 32.9658 47.3269 33.0218 47.3196 33.0786C47.3443 33.1616 47.3645 33.2461 47.38 33.3316C47.3551 33.4545 47.3267 33.581 47.2982 33.7038C47.2698 33.8266 47.2413 33.9532 47.2164 34.076C47.1836 34.2151 47.1175 34.3432 47.0243 34.4482C46.9474 34.521 46.847 34.5609 46.7432 34.5598C46.717 34.5608 46.6911 34.554 46.6684 34.5401C46.6457 34.5263 46.6273 34.506 46.6152 34.4817C46.5826 34.4071 46.5679 34.3253 46.5725 34.2435C46.5745 34.1748 46.5817 34.1063 46.5938 34.0388C46.6087 33.9729 46.6171 33.9055 46.6187 33.8378C46.6227 33.7945 46.6227 33.7509 46.6187 33.7075C46.6157 33.6592 46.6157 33.6107 46.6187 33.5624C46.6187 33.4321 46.6187 33.2237 46.6543 32.9371C46.6899 32.6505 46.6899 32.4384 46.6899 32.297C46.6685 32.2151 46.6472 32.1369 46.6223 32.0513C46.6233 31.9518 46.6174 31.8523 46.6045 31.7536C46.61 31.6693 46.61 31.5848 46.6045 31.5005L46.7041 31.3144L46.6187 30.6668L46.5725 30.6445C46.5317 30.6478 46.4918 30.6592 46.4551 30.678C46.3892 30.7049 46.326 30.7385 46.2665 30.7785C46.1846 30.8032 46.1015 30.823 46.0175 30.838C45.869 30.8609 45.7193 30.8733 45.5692 30.8753L45.3415 30.9869C45.2108 31.0179 45.0823 31.059 44.9573 31.1097C44.8008 31.1656 44.6229 31.2363 44.4166 31.3219C44.31 31.3752 44.2008 31.4225 44.0893 31.4633C44.0091 31.4933 43.9252 31.5108 43.8402 31.5154C43.8146 31.5144 43.789 31.5196 43.7656 31.5305C43.7421 31.5415 43.7214 31.558 43.7051 31.5787C43.6641 31.6307 43.6349 31.6918 43.6197 31.7573C43.5966 31.8619 43.5644 31.964 43.5236 32.0625C43.4738 32.1928 43.4062 32.3565 43.3208 32.5501C43.303 32.6022 43.2781 32.6803 43.2461 32.7883C43.2141 32.8962 43.1821 33.0264 43.143 33.1828C43.1145 33.2423 43.0825 33.3205 43.0469 33.4098C43.0113 33.4991 42.9722 33.6033 42.9295 33.7261C42.9278 33.7947 42.9218 33.8631 42.9117 33.9308C42.9117 34.0127 42.8832 34.1058 42.8619 34.21C42.8406 34.3142 42.8121 34.3589 42.773 34.4593C42.7338 34.5598 42.6876 34.6678 42.6307 34.7906C42.598 34.8602 42.5442 34.9165 42.4777 34.9506C42.3964 34.9896 42.3073 35.0075 42.218 35.0027C42.1851 35.0049 42.1522 34.999 42.1219 34.9854C42.0916 34.9718 42.0648 34.951 42.0436 34.9246C41.9954 34.8531 41.9727 34.7661 41.9796 34.6789C41.9817 34.5403 41.9948 34.4021 42.0187 34.2658C42.0498 34.0917 42.0926 33.92 42.1468 33.7522C42.2073 33.5066 42.2607 33.3093 42.3034 33.1567C42.3408 33.046 42.3658 32.9311 42.3781 32.8143C42.3781 32.7845 42.4101 32.725 42.4385 32.6431L42.531 32.3379C42.5702 32.2188 42.6093 32.0886 42.6449 31.9397L42.6093 31.8839L42.3994 31.9211C42.3781 31.9201 42.3573 31.9138 42.3388 31.9028C42.3202 31.8918 42.3044 31.8764 42.2927 31.8578C42.2669 31.8144 42.2545 31.7637 42.2571 31.7127C42.2539 31.6768 42.2539 31.6406 42.2571 31.6047C42.2856 31.5787 42.2962 31.5303 42.314 31.4745ZM44.7296 30.1942C44.8811 30.1857 45.0314 30.1608 45.1779 30.1197C45.3253 30.0762 45.4768 30.05 45.6297 30.0416C45.6919 30.0563 45.7549 30.0675 45.8183 30.0751C45.9285 30.0527 46.0353 30.0267 46.142 29.9969L46.4693 29.915C46.5072 29.9101 46.5424 29.8917 46.5689 29.8629C46.591 29.8347 46.6024 29.7989 46.6009 29.7624C46.6009 29.6247 46.6009 29.528 46.6009 29.4796C46.6009 29.4312 46.6009 29.2935 46.6187 29.1818C46.6365 29.0702 46.6472 28.9623 46.6685 28.8469L46.5903 28.5342L46.6152 28.2477C46.5974 28.1472 46.5831 28.0504 46.5725 27.9611C46.5637 27.8857 46.5637 27.8095 46.5725 27.7341C46.5725 27.7341 46.5476 27.6857 46.5262 27.6447L46.4515 27.5108C46.4088 27.4326 46.3626 27.3582 46.3163 27.2874C46.2701 27.2167 46.2238 27.1423 46.1811 27.0679C46.1287 26.9892 46.0608 26.9232 45.9819 26.8743C45.9153 26.8325 45.839 26.8106 45.7613 26.8111C45.6724 26.8111 45.5835 26.8855 45.491 27.0344C45.3707 27.243 45.283 27.4704 45.2313 27.708C45.2313 27.7452 45.1815 27.8197 45.121 27.935C45.0605 28.0504 44.9751 28.203 44.8648 28.3891C44.8332 28.6146 44.7734 28.8349 44.6869 29.0441C44.5597 29.358 44.4172 29.6648 44.26 29.9634C44.2426 29.9891 44.2305 30.0182 44.2245 30.049C44.2225 30.075 44.2225 30.1012 44.2245 30.1272C44.2234 30.1401 44.2251 30.1532 44.2294 30.1654C44.2337 30.1776 44.2405 30.1887 44.2494 30.1979C44.2578 30.2076 44.2684 30.215 44.2801 30.2195C44.2919 30.2241 44.3045 30.2256 44.317 30.2239C44.3892 30.2278 44.4617 30.2278 44.534 30.2239L44.7296 30.1942Z" fill="#1D1D1B"/>
<path d="M48.2659 32.1258C48.337 32.029 48.4082 31.9285 48.4793 31.8206C48.7659 31.5748 49.0314 31.3034 49.2727 31.0092C49.4517 30.7915 49.6024 30.55 49.7209 30.2909L49.6533 29.9597C49.7629 29.789 49.9091 29.6475 50.0802 29.5466C50.2412 29.4167 50.4332 29.3356 50.6352 29.3121C50.7751 29.3073 50.9118 29.3563 51.0195 29.4498C51.1226 29.5428 51.2222 29.6396 51.3183 29.7438C51.3558 29.7655 51.3915 29.7904 51.425 29.8182C51.608 29.9666 51.7463 30.1668 51.8235 30.3951C51.9198 30.6832 51.9656 30.987 51.9587 31.2921C51.9354 31.5682 51.8656 31.8379 51.7523 32.0885C51.6385 32.3337 51.5686 32.5986 51.546 32.8701C51.5456 32.8808 51.5476 32.8915 51.5519 32.9012C51.5563 32.9109 51.5628 32.9194 51.5709 32.9259C51.5887 32.9386 51.6098 32.9451 51.6314 32.9446C51.7057 32.9388 51.7771 32.9118 51.8377 32.8664C51.9307 32.8019 52.0176 32.7284 52.0974 32.6468C52.2277 32.502 52.3693 32.3688 52.5208 32.2486C52.5852 32.2115 52.646 32.1679 52.7022 32.1183C52.7378 32.2114 52.7805 32.3118 52.8267 32.4161C52.873 32.5203 52.9228 32.6394 52.9655 32.7585L52.8303 32.8887C52.7805 32.9408 52.72 33.0004 52.6488 33.0637C52.4994 33.179 52.2931 33.3205 52.0618 33.4842C51.8306 33.648 51.5317 33.8564 51.1938 34.0499C51.0984 34.1123 50.9955 34.1611 50.8878 34.1951C50.7444 34.2038 50.6012 34.1743 50.4716 34.1095C50.4249 34.081 50.3868 34.0394 50.3616 33.9894C50.3365 33.9394 50.3253 33.883 50.3293 33.8266C50.3312 33.7669 50.342 33.7079 50.3613 33.6517C50.3826 33.5762 50.41 33.5027 50.4431 33.4321L50.5285 33.246C50.5615 33.1856 50.5889 33.1221 50.6103 33.0562C50.7001 32.7909 50.7737 32.5199 50.8309 32.2449C50.8801 32.0239 50.9064 31.798 50.9092 31.5712C50.9187 31.3759 50.8807 31.1813 50.7989 31.0055C50.7648 30.9444 50.7174 30.8926 50.6605 30.8545C50.6036 30.8163 50.5389 30.7928 50.4716 30.7859C50.3574 30.8523 50.2501 30.9309 50.1514 31.0204C50.0237 31.1345 49.9047 31.2589 49.7956 31.3926C49.6844 31.5358 49.5656 31.6725 49.4399 31.802C49.3658 31.886 49.2808 31.9586 49.1873 32.0178C49.1337 32.1047 49.069 32.1836 48.9952 32.2523C48.8842 32.3577 48.7652 32.4535 48.6394 32.5389L48.6003 32.6208C48.5764 32.6671 48.5465 32.7096 48.5113 32.7473C48.4775 32.6398 48.4383 32.5342 48.3939 32.4309C48.3833 32.3342 48.3192 32.2262 48.2659 32.1258Z" fill="#1D1D1B"/>
<path d="M52.6951 32.1257L52.72 32.0699L52.8231 31.9322L52.9726 31.7387C53.3106 31.4037 53.619 31.0375 53.894 30.6445C54.2189 30.1773 54.5148 29.6887 54.7798 29.1818C54.8235 29.1158 54.8638 29.0475 54.9008 28.9771C54.9435 28.8952 54.9933 28.791 55.0466 28.6645C55.0475 28.6535 55.046 28.6425 55.0424 28.6322C55.0387 28.6219 55.0328 28.6126 55.0253 28.6049C55.0166 28.5968 55.0065 28.5907 54.9955 28.5869C54.9845 28.583 54.9728 28.5816 54.9613 28.5826C54.9165 28.5851 54.8722 28.5939 54.8296 28.6087C54.7855 28.6212 54.7401 28.6287 54.6944 28.631H53.862C53.8264 28.631 53.7695 28.631 53.6876 28.631H53.5133L53.3888 28.5752L53.2785 28.5231C53.2332 28.5085 53.1917 28.483 53.1576 28.4486C53.1439 28.4346 53.133 28.4178 53.1257 28.3992C53.1183 28.3807 53.1147 28.3608 53.1149 28.3407C53.1047 28.1099 53.1349 27.8791 53.2038 27.6596C53.2643 27.5033 53.3532 27.4251 53.4777 27.4251C53.6023 27.4251 53.7197 27.4251 53.8335 27.4251C53.9314 27.4345 54.0288 27.4494 54.1252 27.4698L54.3102 27.4288C54.4121 27.4224 54.5143 27.4224 54.6162 27.4288C54.681 27.4344 54.7452 27.4456 54.8083 27.4623L54.9791 27.4251L55.1605 27.3879L55.3811 27.4549C55.534 27.4363 55.7012 27.2093 55.8756 26.7738C56.0499 26.3384 56.2313 26.1225 56.4377 26.1225C56.4835 26.1192 56.5294 26.1269 56.5719 26.145C56.6144 26.163 56.6525 26.191 56.6831 26.2267C56.7455 26.3145 56.7758 26.4228 56.7685 26.5319C56.7616 26.6763 56.7315 26.8185 56.6796 26.9525C56.6321 27.0798 56.5975 27.2121 56.5764 27.347C56.587 27.3664 56.5989 27.3851 56.612 27.4028C56.6316 27.4304 56.6543 27.4554 56.6796 27.4772C56.6946 27.4879 56.7073 27.5017 56.7171 27.5177C56.7269 27.5337 56.7335 27.5516 56.7365 27.5703C56.7487 27.6239 56.7547 27.6789 56.7543 27.734C56.7578 27.9494 56.7448 28.1647 56.7152 28.3779C56.6938 28.5268 56.6547 28.6049 56.6013 28.6087L56.1495 28.7054C56.1495 28.7538 56.1317 28.8096 56.1175 28.8766C56.1032 28.9436 56.0855 29.0218 56.0641 29.1111C55.9894 29.3418 55.904 29.6359 55.8115 29.9932C55.719 30.3505 55.6123 30.771 55.4985 31.2586C55.4273 31.6307 55.3739 31.962 55.3348 32.2002C55.307 32.3614 55.288 32.5242 55.2779 32.6877C55.2736 32.746 55.286 32.8043 55.3135 32.8552C55.3234 32.8733 55.338 32.8882 55.3556 32.8981C55.3732 32.9079 55.3931 32.9124 55.4131 32.911C55.5179 32.8589 55.6149 32.7912 55.7012 32.7101C55.8649 32.5761 56.0961 32.3751 56.395 32.1109L56.6547 32.751C56.5965 32.8157 56.5334 32.8754 56.4661 32.9297C56.3754 33.0097 56.2804 33.0843 56.1815 33.153C56.1293 33.2137 56.0734 33.2708 56.0143 33.3242C55.9503 33.3874 55.8756 33.4582 55.7973 33.5438C55.719 33.6294 55.6372 33.7261 55.5625 33.8192C55.4878 33.9122 55.406 34.0053 55.3241 34.0909C55.2361 34.1957 55.1314 34.2839 55.0146 34.3514C54.9256 34.4008 54.8271 34.4288 54.7265 34.4333C54.6457 34.4388 54.5647 34.4253 54.4896 34.3937C54.4145 34.3621 54.3471 34.3133 54.2924 34.2509C54.1853 34.0915 54.135 33.898 54.1501 33.7038C54.1501 33.4321 54.1501 33.2013 54.175 33.0041C54.1853 32.842 54.2152 32.6819 54.264 32.5277C54.2818 32.4905 54.2924 32.457 54.3031 32.4309C54.3053 32.3686 54.3112 32.3064 54.3209 32.2448C54.3209 32.163 54.3529 32.0736 54.3707 31.9657C54.3956 31.7833 54.4241 31.5935 54.4561 31.4223L54.6091 31.0502C54.6091 31.0278 54.5913 31.0055 54.5557 30.9869L54.4881 31.0278C54.4126 31.1541 54.3256 31.2726 54.2284 31.3814C54.1102 31.5135 53.9843 31.6378 53.8513 31.7536L53.1611 32.4421C53.138 32.4782 53.1131 32.513 53.0864 32.5463C53.0508 32.5947 53.0117 32.6505 52.969 32.7212C52.9441 32.6654 52.9192 32.5947 52.8836 32.5091C52.848 32.4235 52.816 32.323 52.7804 32.2151C52.7741 32.1873 52.7633 32.1609 52.7484 32.1369C52.7311 32.131 52.7132 32.1272 52.6951 32.1257Z" fill="#1D1D1B"/>
<path d="M59.7677 32.1258C59.804 32.0874 59.8362 32.0449 59.8638 31.9992C59.8997 31.9374 59.9389 31.8778 59.9812 31.8206L60.4899 31.4484C60.5804 31.3423 60.6766 31.2416 60.7781 31.1469L61.2548 30.6966C61.2855 30.6344 61.3225 30.5757 61.3651 30.5217C61.4189 30.4496 61.4797 30.3835 61.5465 30.3244C61.6105 30.2611 61.671 30.2053 61.7315 30.1532C61.792 30.1011 61.8525 30.049 61.9058 29.9969C61.9592 29.9448 62.0339 29.8592 62.0944 29.7885C62.1549 29.7178 62.2153 29.6508 62.2794 29.5875C62.3435 29.5249 62.4168 29.4734 62.4964 29.4349C62.5731 29.3972 62.657 29.3781 62.7418 29.3791C62.8182 29.3745 62.8947 29.3872 62.966 29.4163C62.9875 29.4252 63.0064 29.4398 63.0207 29.4588C63.0351 29.4777 63.0444 29.5003 63.0478 29.5242C63.0051 29.6322 62.9589 29.7364 62.9091 29.8443L62.9482 29.9076C63.1439 29.8257 63.304 29.7699 63.4071 29.7327C63.476 29.7055 63.5476 29.6868 63.6206 29.6768C63.7537 29.6692 63.8868 29.693 64.01 29.7465C64.1331 29.8 64.2432 29.8817 64.3321 29.9857C64.512 30.2593 64.5973 30.5888 64.574 30.9199C64.5733 31.0135 64.565 31.1069 64.5491 31.199C64.5289 31.3168 64.4992 31.4326 64.4602 31.5452C64.4266 31.6662 64.3788 31.7825 64.3179 31.8913C64.2807 31.9667 64.2327 32.0358 64.1756 32.096C64.1878 32.1418 64.2083 32.1848 64.236 32.2225C64.2467 32.235 64.2599 32.2449 64.2747 32.2513C64.2895 32.2578 64.3054 32.2606 64.3214 32.2597C64.3603 32.2586 64.3983 32.2471 64.4317 32.2263C64.4801 32.1966 64.5254 32.1616 64.5669 32.122C64.6131 32.2225 64.6558 32.3305 64.6985 32.4384L64.8266 32.7622L64.5954 32.978C64.5207 33.045 64.4388 33.112 64.357 33.179C64.2702 33.2584 64.1717 33.3225 64.0653 33.3688C63.9813 33.4081 63.8904 33.4284 63.7985 33.4284C63.7088 33.4322 63.6204 33.4061 63.5459 33.354C63.4751 33.2982 63.4198 33.2237 63.3858 33.1381C63.2692 33.2954 63.1341 33.4367 62.9838 33.5587C62.8239 33.6863 62.6494 33.7926 62.4644 33.875C62.3505 33.9271 62.2509 33.9718 62.162 34.0015C62.0815 34.0293 61.9976 34.0444 61.9129 34.0462C61.8682 34.0512 61.824 34.0612 61.7813 34.076C61.7305 34.0921 61.6778 34.1008 61.6248 34.102C61.4952 34.0995 61.3675 34.0688 61.2498 34.0118C61.1322 33.9547 61.0273 33.8727 60.9417 33.7708C60.7496 33.5748 60.6396 33.3071 60.6358 33.0264C60.6419 32.876 60.667 32.7271 60.7105 32.5835C60.7415 32.4775 60.7653 32.3693 60.7816 32.2597C60.7815 32.231 60.7714 32.2032 60.7532 32.1816C60.7416 32.1708 60.7281 32.1626 60.7134 32.1575C60.6987 32.1524 60.6832 32.1504 60.6678 32.1518C60.6088 32.1738 60.5553 32.2094 60.5112 32.256C60.4259 32.323 60.3049 32.4235 60.1555 32.5538C60.1375 32.5794 60.122 32.6068 60.1092 32.6356C60.0855 32.6811 60.0569 32.7236 60.0238 32.7622C59.9883 32.6543 59.9456 32.5463 59.9029 32.4384C59.8634 32.3316 59.8183 32.2273 59.7677 32.1258ZM62.9695 30.8529C62.9328 30.8703 62.9001 30.8957 62.8735 30.9273C62.8267 30.9773 62.7849 31.0321 62.749 31.0911C62.6897 31.2003 62.6185 31.3156 62.5355 31.4372C62.4925 31.49 62.4406 31.5341 62.3825 31.5675C62.3216 31.5987 62.257 31.6212 62.1904 31.6345C62.1477 31.6345 62.1015 31.6791 62.0517 31.7685C61.9899 31.8864 61.9409 32.0112 61.9058 32.1406C61.862 32.2619 61.8263 32.3863 61.7991 32.5128C61.7797 32.597 61.769 32.6831 61.7671 32.7696C61.7621 32.8218 61.7686 32.8744 61.7861 32.9235C61.8037 32.9726 61.8317 33.0168 61.8681 33.0527C61.9046 33.0887 61.9484 33.1154 61.9963 33.1308C62.0441 33.1463 62.0947 33.15 62.1442 33.1418C62.3442 33.1448 62.5403 33.0837 62.7063 32.9669C62.8982 32.8241 63.0613 32.6433 63.1865 32.4347L63.3858 32.1853C63.4261 32.1481 63.4567 32.1007 63.4747 32.0476C63.5004 31.9721 63.5218 31.895 63.5388 31.8169L63.6597 31.4186C63.6289 31.3069 63.5909 31.1975 63.5459 31.0911C63.5264 31.0308 63.489 30.9787 63.4391 30.9422C63.3931 30.9194 63.3438 30.9043 63.2933 30.8976C63.1863 30.8732 63.0783 30.8546 62.9695 30.8417V30.8529Z" fill="#1D1D1B"/>
<path d="M64.5775 32.1257C64.5979 32.0883 64.6205 32.0523 64.6451 32.0178L64.7483 31.8764C64.855 31.7126 64.944 31.5749 65.0151 31.4558C65.0863 31.3367 65.1361 31.2474 65.1681 31.1804C65.2285 31.0613 65.2785 30.9367 65.3175 30.8082C65.355 30.6763 65.3847 30.542 65.4064 30.4062C65.5072 29.6835 65.6631 28.9704 65.8725 28.2737C66.0931 27.5144 66.3741 26.6969 66.7156 25.821C66.809 25.5678 66.9439 25.3335 67.1141 25.1287C67.1682 25.0611 67.2349 25.0058 67.3101 24.9661C67.3854 24.9265 67.4676 24.9033 67.5517 24.898C67.6488 24.8929 67.7452 24.9175 67.8292 24.9687C67.8663 24.9959 67.8977 25.0307 67.9215 25.071C67.9454 25.1113 67.9612 25.1563 67.9679 25.2032C67.9818 25.2743 67.9901 25.3465 67.9928 25.419C67.9928 25.5195 67.9928 25.6535 67.9928 25.8135C67.9928 25.8508 67.9572 26.182 67.8861 26.8073C67.8149 27.1199 67.7153 27.5032 67.5872 27.9647C67.4592 28.4263 67.2991 28.9585 67.1105 29.5651C67.0643 29.6507 67.0145 29.7549 66.9575 29.8852C66.9006 30.0155 66.8295 30.1718 66.7441 30.3504C66.7266 30.3926 66.7123 30.4361 66.7014 30.4807C66.7014 30.5328 66.6623 30.5923 66.6374 30.6556C66.5965 30.704 66.5618 30.7578 66.5342 30.8156C66.4986 30.8901 66.4524 30.9831 66.4061 31.0948C66.3107 31.416 66.2335 31.7428 66.1749 32.0736C66.1037 32.4681 66.0361 32.9333 65.9721 33.4693C65.9081 34.0052 65.8618 34.4556 65.8333 34.8203C65.8013 35.2185 65.7871 35.5646 65.7871 35.8549C65.7871 35.9666 65.7871 36.082 65.8156 36.2011C65.8219 36.3124 65.8361 36.4232 65.8583 36.5323C65.8583 36.6067 65.8938 36.6477 65.9187 36.6477C65.9436 36.6477 66.0788 36.5025 66.2105 36.2197C66.3421 35.9368 66.5093 35.5051 66.7156 34.9357L66.6979 34.798C66.7156 34.757 66.7405 34.7012 66.7726 34.6379C66.8225 34.5512 66.8596 34.4571 66.8828 34.3588C66.9931 33.9866 67.075 33.7 67.1283 33.4916C67.1558 33.3733 67.1891 33.2565 67.2279 33.1418C67.2902 32.9535 67.3713 32.7726 67.4698 32.6021C67.5677 32.4252 67.6796 32.2571 67.8043 32.0997C67.8642 32.2205 67.9176 32.3448 67.9644 32.4718C68.0035 32.5798 68.0391 32.6691 68.0711 32.7435C68 32.8419 67.9392 32.948 67.8896 33.0599C67.8301 33.1949 67.7836 33.3358 67.7509 33.4804C67.7118 33.6107 67.6762 33.741 67.6477 33.8787C67.6193 34.0164 67.5908 34.1466 67.5588 34.2732C67.3791 35.0191 67.1618 35.7546 66.9077 36.4765C66.7556 36.9363 66.5526 37.376 66.303 37.7866C66.2705 37.8501 66.2337 37.9111 66.1927 37.9689L66.0788 38.1401C66.0293 38.1959 65.9731 38.2446 65.9116 38.2853C65.8577 38.3187 65.7964 38.3367 65.7337 38.3374C65.572 38.3463 65.4119 38.2992 65.2784 38.2034C65.1583 38.1048 65.0752 37.9651 65.0436 37.8089C65.0187 37.66 65.0009 37.5111 64.9866 37.366C64.9724 37.2208 64.9546 37.0757 64.9368 36.9343C64.9092 36.8394 64.8889 36.7423 64.8764 36.644C64.8614 36.5343 64.8543 36.4235 64.855 36.3127V35.2595C64.8586 35.1792 64.8694 35.0995 64.887 35.0213C64.9024 34.9415 64.9119 34.8606 64.9155 34.7794C64.8906 34.6379 64.8621 34.5002 64.8372 34.3551C64.8123 34.2099 64.8728 33.9829 64.9048 33.7447C64.9368 33.5065 64.9795 33.2162 65.0293 32.9036L64.855 32.7435C64.8247 32.6592 64.7891 32.5772 64.7483 32.4979C64.7056 32.3937 64.6487 32.2696 64.5775 32.1257ZM67.1924 27.4586C67.1786 27.4592 67.1655 27.4647 67.1551 27.4742C67.1448 27.4837 67.1378 27.4965 67.1354 27.5107L67.0856 27.6596C67.0782 27.7235 67.0627 27.7861 67.0394 27.8456C67.0145 27.9238 66.9789 28.0243 66.9327 28.1434C66.8864 28.2625 66.8722 28.3369 66.8508 28.4114C66.833 28.4717 66.8235 28.5343 66.8224 28.5975L66.8686 28.6533L66.9682 28.5491C66.9741 28.4697 66.9921 28.3918 67.0216 28.3183C67.0568 28.2211 67.0984 28.1266 67.1461 28.0355C67.1834 27.9529 67.2167 27.8685 67.2457 27.7824C67.2647 27.7274 67.2755 27.6696 67.2777 27.6112C67.2798 27.5706 67.2738 27.53 67.2599 27.4921C67.2539 27.4787 67.2443 27.4674 67.2323 27.4595C67.2204 27.4516 67.2065 27.4474 67.1924 27.4474V27.4586Z" fill="#1D1D1B"/>
<path d="M71.184 32.1257L71.2231 32.0773L71.2444 32.0066C71.432 31.7614 71.643 31.5369 71.8741 31.3367C72.1053 31.1376 72.3152 30.913 72.5003 30.6667C72.536 30.5995 72.589 30.5441 72.6532 30.5067C72.7054 30.4758 72.7641 30.4592 72.824 30.4583C72.9638 30.4535 73.1012 30.4966 73.2153 30.5811C73.329 30.6724 73.4053 30.8055 73.4288 30.9533C73.4608 31.0948 73.4893 31.2399 73.5142 31.3851C73.5391 31.5302 73.564 31.6791 73.5818 31.8279C73.6138 31.921 73.6494 32.0624 73.6956 32.2485C73.7131 32.3611 73.7467 32.4702 73.7952 32.5723C73.8161 32.617 73.8514 32.6526 73.8948 32.6728C73.9471 32.6936 74.0026 32.7038 74.0585 32.7026C74.1421 32.7022 74.2251 32.6871 74.304 32.6579C74.3987 32.6222 74.4866 32.5693 74.5637 32.5016C74.6313 32.442 74.6989 32.3788 74.7736 32.3192L74.9906 32.1331L75.2539 32.7733C75.1649 32.8632 75.071 32.9477 74.9728 33.0264C74.8554 33.1231 74.7131 33.2311 74.5494 33.3576C74.4032 33.473 74.2486 33.5763 74.087 33.6665C73.9974 33.7207 73.8981 33.7549 73.7952 33.767C73.5253 33.7967 73.2529 33.7464 73.009 33.6219C72.818 33.3858 72.6817 33.1069 72.6106 32.8068C72.5885 32.7608 72.5623 32.7172 72.5323 32.6765L72.4113 32.4941C72.3712 32.4111 72.3248 32.3314 72.2726 32.256C72.2335 32.2001 72.2014 32.1741 72.173 32.1741C72.0659 32.1925 71.9667 32.2444 71.8884 32.3229C71.7308 32.4601 71.5844 32.6107 71.4508 32.7733C71.4259 32.7137 71.401 32.6393 71.3654 32.5574C71.3298 32.4755 71.2978 32.3751 71.2622 32.2671C71.2559 32.2393 71.2451 32.2129 71.2302 32.189C71.2183 32.1653 71.2027 32.1439 71.184 32.1257ZM73.9589 26.6435C74.0451 26.6355 74.1311 26.6606 74.2008 26.7142C74.2279 26.739 74.2491 26.7701 74.2627 26.805C74.2763 26.8399 74.2819 26.8776 74.2791 26.9152C74.2506 27.0454 74.2293 27.1534 74.2115 27.2427C74.1688 27.4102 74.1297 27.5442 74.0976 27.6521C74.0656 27.76 74.0372 27.8345 74.0194 27.8828C73.9823 27.9815 73.9267 28.0714 73.8557 28.1471C73.7837 28.2288 73.6996 28.2979 73.6067 28.3518C73.528 28.4131 73.4433 28.4655 73.3541 28.5081C73.3095 28.5341 73.2593 28.5482 73.2082 28.549L72.9948 28.523H72.792C72.7257 28.4806 72.6764 28.4145 72.6532 28.3369C72.6182 28.2164 72.6026 28.0906 72.607 27.9647C72.6314 27.7671 72.7162 27.583 72.8489 27.44C73.009 27.2315 73.1513 27.1162 73.2758 27.105L73.5426 26.77C73.5941 26.7325 73.6521 26.7059 73.7134 26.6919C73.792 26.6594 73.8747 26.6394 73.9589 26.6323V26.6435Z" fill="#1D1D1B"/>
<path d="M74.9835 32.1258C75.0277 32.0727 75.067 32.0154 75.1009 31.9546C75.1501 31.8793 75.2036 31.8073 75.261 31.7387L75.6986 31.333C75.7076 31.3269 75.7152 31.3186 75.7207 31.309C75.7263 31.2993 75.7297 31.2884 75.7306 31.2772C75.7306 31.2549 75.7306 31.2214 75.7306 31.1804C75.7269 31.1316 75.7198 31.0831 75.7093 31.0353C75.7175 30.8554 75.7377 30.6763 75.7698 30.4993C75.7845 30.3447 75.8204 30.193 75.8765 30.049L75.8374 29.915C75.9011 29.5722 75.9819 29.233 76.0793 28.899C76.1824 28.5268 76.2998 28.1323 76.435 27.7006C76.4864 27.6091 76.5327 27.5147 76.5738 27.4177L76.7374 27.0455C76.823 26.7915 76.9227 26.5429 77.0363 26.3012C77.1608 26.0369 77.2995 25.7689 77.4561 25.4898C77.6155 25.1966 77.8014 24.9199 78.011 24.6636C78.0616 24.5888 78.1261 24.5254 78.2007 24.4775C78.2753 24.4295 78.3584 24.3978 78.4451 24.3844C78.6345 24.3625 78.8246 24.4185 78.9751 24.5407C79.0875 24.713 79.138 24.9213 79.1175 25.1288C79.1126 25.2438 79.0995 25.3582 79.0783 25.4712C79.0596 25.5869 79.0478 25.7038 79.0427 25.821C79.0357 25.9359 79.0117 26.0489 78.9716 26.156C78.9252 26.2821 78.8999 26.4155 78.8969 26.5505C78.8928 26.5895 78.882 26.6273 78.8649 26.6622V26.7589C78.8416 26.8398 78.8142 26.9193 78.783 26.9971C78.7475 27.0914 78.7012 27.2031 78.6443 27.3321C78.5874 27.4611 78.5482 27.5951 78.5269 27.734C78.4771 27.8866 78.4202 28.0541 78.3526 28.2328C78.3241 28.2812 78.2921 28.337 78.2494 28.404C78.2067 28.471 78.1605 28.5454 78.1142 28.631C78.097 28.7022 78.0744 28.7719 78.0466 28.8394C78.0146 28.9176 77.9755 29.0106 77.9221 29.1148C77.8687 29.219 77.8581 29.2302 77.8154 29.2972C77.7727 29.3642 77.7158 29.4461 77.6553 29.5466C77.6225 29.6025 77.594 29.6609 77.5699 29.7215L77.4632 29.956C77.4134 30.0341 77.3493 30.1346 77.2711 30.25C77.1928 30.3654 77.1003 30.4993 76.9971 30.6594C76.8619 30.9125 76.7196 31.1581 76.5738 31.4037C76.5491 31.7628 76.6392 32.1202 76.8299 32.4198C76.9213 32.5377 77.0386 32.6308 77.1718 32.691C77.3049 32.7513 77.4501 32.777 77.5948 32.7659C77.6621 32.7542 77.7287 32.738 77.794 32.7175L78.2672 32.4979C78.3384 32.4495 78.4073 32.3973 78.4735 32.3416C78.5518 32.2709 78.6443 32.1928 78.7439 32.0997L79.0036 32.7399C78.8898 32.8441 78.7724 32.9557 78.6479 33.0674C78.5233 33.179 78.4166 33.287 78.2921 33.3912C78.1663 33.5047 78.0248 33.5976 77.8723 33.6666C77.7411 33.7271 77.5994 33.7588 77.4561 33.7596C77.3849 33.7596 77.2782 33.7596 77.1323 33.7373C77.0214 33.7221 76.9097 33.7134 76.7979 33.7112C76.6791 33.713 76.5616 33.6856 76.4547 33.6313C76.3478 33.5771 76.2546 33.4974 76.1824 33.3986C75.9908 33.122 75.8685 32.7996 75.8267 32.4607C75.8191 32.4222 75.8072 32.3847 75.7911 32.3491C75.7684 32.3084 75.7409 32.2709 75.7093 32.2374L75.5065 32.4533C75.4282 32.5389 75.3357 32.6319 75.2219 32.7399L74.9835 32.1258ZM78.1498 26.6733L78.1035 26.6436C77.888 26.8545 77.6991 27.0934 77.5414 27.3544C77.4241 27.5473 77.359 27.7698 77.3529 27.9983C77.3474 28.055 77.333 28.1103 77.3102 28.1621C77.2817 28.2402 77.239 28.337 77.1821 28.4561C77.1252 28.5752 77.0363 28.7575 76.9615 28.9287C76.8762 29.1893 76.8121 29.4014 76.7694 29.5615C76.7328 29.6746 76.7101 29.7922 76.7018 29.9113L76.741 29.9671C76.7837 29.9671 76.8299 29.9187 76.8904 29.8406C76.9648 29.7304 77.0313 29.6147 77.0896 29.4945C77.1334 29.3932 77.1833 29.295 77.239 29.2004C77.3066 29.0888 77.3813 28.9585 77.4667 28.8059C77.6036 28.5563 77.7168 28.2933 77.8047 28.0206C77.9119 27.7599 77.9965 27.4896 78.0573 27.213C78.0619 27.1216 78.0738 27.0307 78.0929 26.9413C78.1142 26.8371 78.132 26.7478 78.1498 26.6622V26.6733Z" fill="#1D1D1B"/>
<path d="M78.7296 32.1258C78.7738 32.0727 78.8131 32.0154 78.847 31.9546C78.8939 31.8776 78.9475 31.8054 79.0071 31.7387L79.4447 31.333C79.4537 31.3269 79.4613 31.3186 79.4669 31.309C79.4724 31.2993 79.4758 31.2884 79.4767 31.2772C79.4767 31.2549 79.4767 31.2214 79.4767 31.1804C79.4767 31.1395 79.4767 31.0725 79.4554 31.0353C79.4636 30.8554 79.4838 30.6763 79.5159 30.4993C79.5306 30.3446 79.5665 30.193 79.6226 30.049L79.5799 29.915C79.6404 29.6061 79.7186 29.2674 79.8254 28.899C79.9321 28.5305 80.0459 28.1323 80.1811 27.7006C80.2352 27.6101 80.2828 27.5156 80.3234 27.4177L80.4871 27.0455C80.5711 26.7909 80.6709 26.5422 80.7859 26.3012C80.9104 26.0369 81.0492 25.7689 81.2057 25.4898C81.3639 25.1957 81.5499 24.919 81.7607 24.6636C81.8112 24.5888 81.8758 24.5254 81.9504 24.4775C82.025 24.4295 82.1081 24.3978 82.1947 24.3844C82.3841 24.3625 82.5743 24.4185 82.7248 24.5407C82.8372 24.713 82.8876 24.9213 82.8671 25.1288C82.8622 25.2438 82.8491 25.3582 82.828 25.4712C82.8093 25.5869 82.7974 25.7038 82.7924 25.821C82.7853 25.9359 82.7613 26.0489 82.7212 26.156C82.6749 26.2821 82.6496 26.4155 82.6465 26.5505C82.6425 26.5895 82.6316 26.6273 82.6145 26.6622V26.7589C82.5912 26.8398 82.5639 26.9193 82.5327 26.9971C82.4971 27.0914 82.4509 27.2031 82.3939 27.3321C82.3619 27.4475 82.3228 27.5815 82.273 27.734C82.2232 27.8866 82.1698 28.0541 82.1022 28.2328C82.0738 28.2812 82.0417 28.337 81.999 28.404C81.9564 28.471 81.9101 28.5454 81.8639 28.631C81.8467 28.7022 81.8241 28.7719 81.7963 28.8394C81.7643 28.9176 81.7216 29.0106 81.6682 29.1148C81.6381 29.1782 81.6036 29.2391 81.565 29.2972C81.5188 29.3605 81.4654 29.4461 81.4049 29.5466C81.3722 29.6025 81.3436 29.6609 81.3195 29.7215L81.2128 29.956C81.163 30.0341 81.099 30.1346 81.0207 30.25C80.9424 30.3654 80.8499 30.4993 80.7468 30.6594C80.608 30.9125 80.4693 31.1581 80.3234 31.4037C80.2977 31.7623 80.3865 32.1197 80.576 32.4198C80.6683 32.5375 80.7863 32.6304 80.92 32.6906C81.0537 32.7508 81.1992 32.7767 81.3445 32.7659C81.4118 32.7542 81.4783 32.738 81.5437 32.7175L82.0026 32.5649C82.0739 32.5165 82.1427 32.4643 82.2089 32.4086C82.2872 32.3379 82.3797 32.2598 82.4793 32.1667L82.739 32.8069C82.6252 32.9111 82.5078 33.0227 82.3833 33.1344C82.2588 33.246 82.152 33.354 82.0275 33.4582C81.9017 33.5717 81.7602 33.6646 81.6077 33.7336C81.4765 33.7941 81.3349 33.8258 81.1915 33.8266C81.1203 33.8266 81.01 33.8266 80.8642 33.8043C80.7545 33.789 80.644 33.7803 80.5333 33.7782C80.4145 33.78 80.297 33.7526 80.1901 33.6983C80.0833 33.644 79.99 33.5643 79.9179 33.4656C79.7262 33.189 79.6039 32.8665 79.5621 32.5277C79.5546 32.4891 79.5426 32.4517 79.5265 32.4161C79.5039 32.3754 79.4764 32.3379 79.4447 32.3044L79.2419 32.5203C79.1636 32.6059 79.0676 32.6989 78.9573 32.8069L78.7296 32.1258ZM81.8959 26.6733L81.8496 26.6436C81.6331 26.8535 81.4441 27.0926 81.2875 27.3544C81.1702 27.5473 81.1051 27.7698 81.099 27.9983C81.0935 28.055 81.0791 28.1103 81.0563 28.1621C81.0278 28.2402 80.9851 28.337 80.9282 28.4561C80.8713 28.5752 80.7823 28.7575 80.7076 28.9287C80.6223 29.1893 80.5582 29.4014 80.5155 29.5615C80.4789 29.6746 80.4562 29.7922 80.4479 29.9113L80.4871 29.9671C80.5298 29.9671 80.576 29.9187 80.6329 29.8406C80.7099 29.7322 80.7766 29.6163 80.8322 29.4945C80.8773 29.3932 80.9284 29.2951 80.9851 29.2004C81.0527 29.0888 81.1274 28.9585 81.2128 28.8059C81.4634 28.2985 81.6614 27.7645 81.8034 27.213C81.808 27.1216 81.8199 27.0307 81.839 26.9413C81.8603 26.8371 81.8781 26.7478 81.8959 26.6622V26.6733Z" fill="#1D1D1B"/>
<path d="M82.4722 32.1257C82.4902 32.1125 82.5058 32.0962 82.5184 32.0773C82.5245 32.0542 82.5245 32.0298 82.5184 32.0066C82.61 31.9254 82.6957 31.8371 82.7746 31.7424C82.8706 31.627 82.9773 31.493 83.0983 31.3404C83.2193 31.1878 83.294 31.0613 83.4007 30.9236C83.5074 30.7859 83.6142 30.6444 83.7351 30.5067C83.8561 30.369 83.9272 30.2239 84.0233 30.0713C84.1193 29.9187 84.2189 29.7773 84.3257 29.6321C84.4602 29.5629 84.5979 29.5008 84.7384 29.446C84.8018 29.4174 84.8689 29.3986 84.9376 29.3902C84.9659 29.3887 84.9942 29.3936 85.0206 29.4046C85.047 29.4155 85.0708 29.4321 85.0906 29.4535C85.1296 29.5094 85.1485 29.5779 85.1439 29.647C85.1418 29.6863 85.1346 29.7251 85.1226 29.7624C85.1226 29.8145 85.0941 29.8703 85.0763 29.9299C85.0585 29.9894 85.0087 30.1197 84.9696 30.2164C84.934 30.3765 84.8913 30.5402 84.8451 30.7003C84.7988 30.8603 84.749 31.0241 84.7028 31.1804C84.6565 31.3367 84.6245 31.5526 84.5996 31.7312C84.5515 32.0743 84.5515 32.4228 84.5996 32.7659C84.6245 32.8887 84.6601 32.9445 84.7028 32.9334L84.87 32.8329L85.1012 32.6952C85.1968 32.5911 85.2871 32.4817 85.3716 32.3676L85.7274 31.9099C85.8056 31.7808 85.8875 31.6568 85.9728 31.5377L86.0938 31.3814C86.1329 31.3293 86.1721 31.2809 86.2076 31.2288C86.2689 31.045 86.3658 30.8765 86.4922 30.7338C86.5371 30.6817 86.592 30.6401 86.6533 30.6119C86.7146 30.5837 86.781 30.5694 86.848 30.57C86.9412 30.566 87.0343 30.5811 87.122 30.6147C87.1842 30.6384 87.2352 30.6864 87.2643 30.7487C87.2825 30.8028 87.2944 30.859 87.2998 30.9161C87.2998 30.9931 87.2998 31.0973 87.2998 31.2288C87.303 31.3042 87.3137 31.379 87.3318 31.4521C87.3471 31.5231 87.3566 31.5953 87.3603 31.6679C87.3536 31.7981 87.3832 31.9274 87.4457 32.0401C87.4765 32.0831 87.517 32.1174 87.5635 32.1401C87.6101 32.1628 87.6612 32.1732 87.7125 32.1704C87.756 32.1691 87.7991 32.1616 87.8406 32.1481L87.9864 32.0997L88.2497 32.7398C87.9864 32.9073 87.7659 33.0338 87.5951 33.112C87.4778 33.1808 87.3482 33.2239 87.2144 33.2385C87.0187 33.247 86.8262 33.1838 86.6701 33.0599C86.517 32.918 86.4079 32.7313 86.3571 32.524C86.3477 32.465 86.3285 32.4083 86.3001 32.3565C86.2696 32.2973 86.2338 32.2413 86.1934 32.189L86.0547 32.3565C86.0049 32.4197 85.9515 32.4867 85.8946 32.55L85.5388 33.0003C85.4179 33.1455 85.2969 33.2906 85.1831 33.4321C85.0546 33.5999 84.8964 33.7402 84.717 33.8452C84.5815 33.9267 84.4286 33.9714 84.2723 33.9755C84.1825 33.9796 84.0929 33.9649 84.0086 33.9323C83.9243 33.8997 83.847 33.8498 83.7814 33.7856C83.6454 33.6291 83.5617 33.4306 83.543 33.2199C83.5039 32.978 83.4754 32.7882 83.4647 32.6542C83.4525 32.5741 83.4525 32.4924 83.4647 32.4123C83.4594 32.3097 83.4463 32.2076 83.4256 32.1071C83.4256 32.0364 83.39 32.0029 83.358 32.0029L83.3189 32.0215L82.9382 32.4346C82.9199 32.476 82.8985 32.5159 82.8742 32.5537C82.841 32.6009 82.7983 32.6604 82.7461 32.7324C82.7216 32.6444 82.6907 32.5586 82.6536 32.4756C82.6038 32.3937 82.5362 32.2672 82.4722 32.1257Z" fill="#1D1D1B"/>
<path d="M88.0007 32.1257L88.0932 31.9992L88.2106 31.8205C88.4063 31.5675 88.5984 31.3367 88.7798 31.1357C88.9613 30.9348 89.1356 30.7636 89.3028 30.5961C89.3882 30.5142 89.4878 30.4063 89.6088 30.276L90.0286 29.8182L90.5551 29.5986C90.6049 29.5951 90.6547 29.6041 90.7005 29.6248C90.7463 29.6455 90.7867 29.6774 90.8184 29.7177C90.8817 29.8232 90.9116 29.947 90.9037 30.0713C90.9041 30.2108 90.8946 30.3501 90.8753 30.4881C90.8539 30.6407 90.829 30.7933 90.7934 30.9534C90.7526 31.075 90.7193 31.1994 90.6938 31.3255C90.6928 31.3505 90.699 31.3751 90.7116 31.3963C90.7201 31.4059 90.7306 31.4134 90.7424 31.4179C90.7542 31.4224 90.7668 31.424 90.7792 31.4223C90.9215 31.324 91.0507 31.2064 91.1634 31.0725C91.3556 30.8752 91.6046 30.5961 91.9141 30.2388C92.1286 29.9871 92.367 29.7589 92.6256 29.5577C92.7607 29.434 92.9278 29.355 93.1059 29.3307C93.1612 29.3265 93.2166 29.3381 93.2661 29.3643C93.3156 29.3906 93.3574 29.4304 93.3869 29.4795C93.4551 29.6158 93.4858 29.769 93.4759 29.9224C93.476 30.1954 93.4558 30.4679 93.4154 30.7375C93.3763 30.9936 93.307 31.2436 93.2091 31.4819C93.1937 31.5187 93.1829 31.5575 93.177 31.5972C93.1754 31.6282 93.1754 31.6593 93.177 31.6903C93.177 31.7201 93.2055 31.7498 93.2589 31.7796C93.3033 31.7365 93.3438 31.6891 93.3798 31.6382C93.4261 31.5786 93.4794 31.5042 93.5435 31.4111L93.8494 31.1469C93.949 31.0576 94.0593 30.9683 94.1803 30.8752C94.2948 30.7798 94.4218 30.7021 94.5574 30.6445C94.6767 30.5914 94.8049 30.5636 94.9345 30.5626C94.9587 30.5626 94.9823 30.5704 95.0021 30.5849C95.0257 30.5993 95.0483 30.6155 95.0697 30.6333C95.158 30.7131 95.2423 30.7976 95.3223 30.8864C95.3757 30.9462 95.4223 31.0124 95.461 31.0836C95.5871 31.3756 95.7408 31.6537 95.9199 31.9136C96.0551 32.096 96.1761 32.189 96.2757 32.189C96.298 32.194 96.321 32.194 96.3433 32.189C96.3662 32.1767 96.3877 32.1618 96.4073 32.1443C96.5105 32.3714 96.5959 32.5835 96.667 32.7845C96.5348 32.8958 96.3931 32.9942 96.2437 33.0785C96.144 33.1393 96.0317 33.1738 95.9164 33.179C95.7251 33.1546 95.5414 33.0862 95.3784 32.9787C95.2155 32.8713 95.0772 32.7274 94.9736 32.5575C94.6463 32.1443 94.3973 31.9359 94.2265 31.9359C93.9894 31.9359 93.6063 32.292 93.0774 33.0041C92.5438 33.7149 92.2094 34.0685 92.0742 34.0685C92.0101 34.0685 91.9212 34.0685 91.8109 34.0685C91.7922 34.0602 91.7753 34.048 91.7612 34.0327C91.7471 34.0173 91.7362 33.9991 91.7291 33.9792C91.7111 33.9293 91.7026 33.8762 91.7042 33.8229C91.708 33.7311 91.7211 33.64 91.7433 33.5512C91.767 33.4346 91.8026 33.3006 91.8501 33.1492C91.907 32.9557 91.9532 32.7994 91.9888 32.684C92.016 32.6055 92.0363 32.5245 92.0493 32.4421C92.0493 32.3825 92.0813 32.2634 92.1062 32.0885C92.1311 31.9136 92.1631 31.6754 92.2023 31.3851C92.2042 31.3416 92.1902 31.2991 92.1631 31.266C92.1372 31.2402 92.1029 31.2256 92.0671 31.2251C92.0322 31.2272 91.9982 31.2374 91.9675 31.2548C91.9197 31.2838 91.8755 31.3188 91.8358 31.359C91.7825 31.4186 91.7255 31.4781 91.6615 31.5377C91.5975 31.5972 91.4943 31.6828 91.352 31.7945C91.1955 31.9806 91.0389 32.1667 90.8753 32.3602C90.7116 32.5537 90.5515 32.7324 90.3808 32.9408C90.1821 33.1919 89.9707 33.4317 89.7475 33.6591C89.591 33.8154 89.4914 33.8936 89.4451 33.8936C89.3422 33.8994 89.2393 33.883 89.1427 33.8452C89.1135 33.8347 89.0881 33.8152 89.0697 33.7893C89.0512 33.7634 89.0408 33.7323 89.0396 33.7C89.0794 33.3722 89.1582 33.0509 89.2744 32.7436C89.3998 32.4159 89.48 32.0713 89.5127 31.7201C89.5132 31.7048 89.5106 31.6896 89.5051 31.6755C89.4996 31.6614 89.4913 31.6487 89.4807 31.6382C89.4708 31.6283 89.459 31.6205 89.4462 31.6154C89.4334 31.6103 89.4197 31.6079 89.406 31.6084C89.3347 31.6157 89.2681 31.6486 89.2174 31.7014C89.1225 31.7887 89.0377 31.8874 88.9648 31.9955C88.9056 32.0699 88.8308 32.1555 88.7407 32.2523C88.6518 32.3528 88.5415 32.4644 88.4134 32.5947C88.3985 32.6321 88.3806 32.6682 88.3601 32.7026C88.3374 32.7379 88.3124 32.7715 88.2853 32.8031C88.2624 32.7146 88.2315 32.6286 88.1928 32.5463C88.1288 32.3937 88.0719 32.2672 88.0007 32.1257Z" fill="#1D1D1B"/>
<path d="M96.3824 32.1257L96.4216 32.0773L96.4394 32.0066C96.6284 31.7616 96.8405 31.5371 97.0726 31.3367C97.3028 31.1377 97.5116 30.9131 97.6952 30.6667C97.7329 30.6011 97.7855 30.5462 97.8482 30.5067C97.9013 30.4752 97.9614 30.4585 98.0225 30.4583C98.1622 30.454 98.2995 30.4971 98.4138 30.5811C98.5275 30.6718 98.6029 30.8054 98.6237 30.9533C98.6557 31.0948 98.6842 31.2399 98.7127 31.3851C98.7411 31.5302 98.7589 31.6791 98.7767 31.8279C98.8215 31.966 98.8595 32.1064 98.8905 32.2485C98.9118 32.3601 98.9452 32.4687 98.9902 32.5723C99.012 32.6163 99.047 32.6516 99.0898 32.6728C99.1432 32.6936 99.2 32.7037 99.257 32.7026C99.3406 32.7016 99.4235 32.6865 99.5025 32.6579C99.5972 32.6222 99.6851 32.5693 99.7622 32.5016C99.8262 32.442 99.8974 32.3788 99.9721 32.3192L100.186 32.1331L100.452 32.7733C100.381 32.8477 100.285 32.9296 100.171 33.0264C100.057 33.1231 99.9116 33.2311 99.7479 33.3576C99.6006 33.4732 99.4447 33.5765 99.2819 33.6665C99.1925 33.7212 99.0931 33.7554 98.9902 33.767C98.7214 33.7964 98.4502 33.7461 98.2075 33.6219C98.0152 33.3868 97.8787 33.1075 97.809 32.8068C97.7856 32.7608 97.7582 32.7172 97.7272 32.6765C97.6952 32.6244 97.6525 32.5649 97.6098 32.4942C97.5696 32.4111 97.5232 32.3314 97.4711 32.256C97.4319 32.2001 97.3964 32.1741 97.3715 32.1741C97.2635 32.1929 97.1632 32.2447 97.0833 32.3229C96.9274 32.462 96.7812 32.6125 96.6457 32.7733L96.5639 32.5574C96.5319 32.4755 96.4963 32.3751 96.4607 32.2671C96.4513 32.2405 96.4406 32.2144 96.4287 32.189C96.4168 32.1653 96.4011 32.1439 96.3824 32.1257ZM99.1574 26.6435C99.2435 26.6355 99.3295 26.6606 99.3993 26.7142C99.4253 26.7397 99.4455 26.771 99.4585 26.8058C99.4714 26.8406 99.4767 26.878 99.474 26.9152L99.41 27.2427C99.3637 27.4102 99.3246 27.5442 99.2926 27.6521C99.2605 27.76 99.2356 27.8345 99.2179 27.8828C99.1782 27.9801 99.1228 28.0695 99.0542 28.1471C98.9814 28.2279 98.8974 28.2969 98.8052 28.3518C98.7249 28.4125 98.6391 28.4648 98.549 28.5081C98.5056 28.534 98.4567 28.5481 98.4067 28.549L98.1897 28.523H97.9869C97.9208 28.4813 97.8724 28.4147 97.8517 28.3369C97.8151 28.2167 97.7983 28.0908 97.8019 27.9647C97.828 27.7676 97.9126 27.584 98.0438 27.44C98.2075 27.2315 98.3498 27.1162 98.4743 27.105L98.7376 26.77C98.7907 26.7332 98.8497 26.7067 98.9119 26.6919C98.9905 26.6594 99.0732 26.6394 99.1574 26.6323V26.6435Z" fill="#1D1D1B"/>
<path d="M100.178 32.1257C100.2 32.0884 100.224 32.0523 100.25 32.0178L100.353 31.8764C100.395 31.8392 100.452 31.787 100.523 31.7163C100.595 31.6456 100.676 31.5675 100.765 31.4744L101.057 31.1283L101.473 30.6333L101.74 30.3318L102.103 29.8927C102.212 29.7526 102.348 29.6373 102.501 29.554C102.642 29.4803 102.796 29.4421 102.953 29.4423C103.02 29.4361 103.088 29.4471 103.15 29.4743C103.212 29.5015 103.266 29.5442 103.309 29.5986C103.393 29.7332 103.433 29.8925 103.423 30.0527C103.405 30.2597 103.367 30.4642 103.309 30.6631C103.233 30.9658 103.115 31.364 102.953 31.8578L102.843 32.122C102.818 32.1724 102.8 32.2263 102.79 32.282C102.786 32.3167 102.786 32.3516 102.79 32.3863C102.793 32.4255 102.809 32.4623 102.836 32.4905C102.859 32.4741 102.88 32.4554 102.9 32.4346L102.967 32.3528C103.012 32.2722 103.067 32.1984 103.131 32.1332C103.206 32.0587 103.291 31.9731 103.394 31.8801C103.438 31.7961 103.491 31.7174 103.551 31.6456C103.617 31.5693 103.688 31.4984 103.764 31.4335C103.79 31.4056 103.814 31.3758 103.836 31.3442C103.868 31.2988 103.902 31.2553 103.939 31.2139C104.004 31.1463 104.073 31.0829 104.145 31.0241C104.223 30.962 104.316 30.8951 104.423 30.8231C104.528 30.7663 104.636 30.7154 104.746 30.6705C104.825 30.6364 104.91 30.6175 104.995 30.6147C105.121 30.613 105.245 30.6491 105.351 30.7189C105.469 30.8008 105.563 30.9138 105.625 31.0464C105.714 31.333 105.796 31.601 105.878 31.8466C105.912 31.962 105.968 32.0694 106.041 32.163C106.065 32.1951 106.095 32.2212 106.129 32.2393C106.164 32.2573 106.202 32.2669 106.24 32.2672C106.294 32.2686 106.348 32.2571 106.397 32.2337C106.448 32.2094 106.493 32.1738 106.529 32.1295L106.792 32.7696L106.561 32.9706L106.329 33.1716C106.245 33.2564 106.148 33.3256 106.041 33.3763C105.959 33.4158 105.869 33.4362 105.778 33.4358C105.677 33.4367 105.577 33.4124 105.486 33.3651C105.391 33.3184 105.309 33.2466 105.248 33.1567C105.195 33.0948 105.149 33.026 105.113 32.952C105.059 32.8552 104.999 32.7287 104.928 32.5798C104.857 32.5056 104.792 32.426 104.732 32.3416L104.476 31.9917L104.415 31.9694C104.328 32.0009 104.244 32.0434 104.166 32.096C104.074 32.1602 103.987 32.2324 103.907 32.3118C103.775 32.4435 103.629 32.5596 103.473 32.6579C103.4 32.6918 103.338 32.7475 103.295 32.818C103.202 32.9719 103.096 33.1164 102.978 33.2497C102.826 33.4259 102.638 33.6343 102.413 33.875L102.242 34.0499L102.067 34.2211C102.011 34.2721 101.944 34.309 101.872 34.329C101.793 34.351 101.711 34.361 101.63 34.3588C101.452 34.3588 101.356 34.2955 101.342 34.169C101.324 34.0425 101.31 33.9122 101.299 33.7968C101.363 33.6033 101.441 33.3614 101.523 33.0525C101.605 32.7436 101.705 32.4235 101.815 32.0327C101.817 32.0006 101.824 31.9691 101.836 31.9396C101.854 31.8987 101.872 31.8466 101.893 31.7833C101.911 31.7322 101.927 31.68 101.939 31.627C101.942 31.5886 101.942 31.55 101.939 31.5116C101.94 31.4965 101.937 31.4814 101.931 31.4677C101.925 31.4541 101.916 31.4423 101.904 31.4335C101.872 31.4125 101.834 31.4033 101.797 31.4074C101.732 31.4158 101.672 31.4443 101.623 31.4893C101.527 31.568 101.439 31.6565 101.359 31.7536C101.235 31.895 101.135 32.0029 101.061 32.0811C101.016 32.1346 100.965 32.1811 100.908 32.2188C100.853 32.263 100.801 32.3102 100.751 32.3602L100.548 32.5612C100.548 32.5798 100.527 32.6058 100.509 32.6431C100.485 32.6885 100.457 32.731 100.424 32.7696C100.399 32.6817 100.368 32.5958 100.331 32.5128C100.324 32.3937 100.249 32.2672 100.178 32.1257Z" fill="#1D1D1B"/>
<path d="M106.728 31.8094L107.329 31.3926C107.406 31.3161 107.469 31.2268 107.518 31.1283C107.547 31.0688 107.588 31.0168 107.639 30.9757C107.694 30.9326 107.754 30.8952 107.817 30.8641C107.852 30.8194 107.902 30.7599 107.969 30.6892C108.037 30.6185 108.119 30.5403 108.222 30.4473C108.286 30.4103 108.348 30.3693 108.407 30.3244C108.495 30.2613 108.577 30.1903 108.653 30.1123C108.979 29.7781 109.336 29.4788 109.72 29.2191C109.944 29.0475 110.208 28.9433 110.485 28.9176C110.577 28.9079 110.668 28.9359 110.741 28.9957C110.77 29.0228 110.792 29.0562 110.807 29.0936C110.822 29.1309 110.828 29.1713 110.826 29.2116C110.827 29.2999 110.81 29.3875 110.776 29.4684C110.741 29.5442 110.687 29.6086 110.62 29.6545L110.264 29.9336C110.184 30.0424 110.097 30.1456 110.004 30.2426C109.894 30.3594 109.775 30.4676 109.649 30.5663C109.606 30.6259 109.567 30.678 109.538 30.7264L109.41 30.8492C109.334 30.9251 109.252 30.9948 109.165 31.0576C109.09 31.206 108.993 31.3405 108.877 31.4559C108.727 31.6159 108.521 31.828 108.283 32.0402C108.221 32.1081 108.165 32.1815 108.115 32.2598L107.795 32.7213L107.841 32.7808C107.951 32.7443 108.055 32.689 108.147 32.6171C108.272 32.5206 108.391 32.4162 108.503 32.3044L108.859 31.9509C108.923 31.8881 108.991 31.8297 109.062 31.7759L109.154 31.7201C109.191 31.6989 109.227 31.6753 109.261 31.6494C109.425 31.4346 109.617 31.2443 109.83 31.0837C109.973 30.973 110.144 30.9084 110.321 30.8976C110.363 30.8957 110.405 30.9054 110.442 30.9256C110.48 30.9458 110.512 30.9759 110.535 31.013C110.592 31.1185 110.621 31.2379 110.62 31.3591C110.62 31.5898 110.62 31.8131 110.62 32.0253C110.612 32.1679 110.652 32.3089 110.734 32.4235C110.769 32.4791 110.817 32.5246 110.874 32.5558C110.931 32.587 110.994 32.6029 111.057 32.6022C111.099 32.602 111.14 32.5891 111.175 32.5649C111.216 32.5392 111.254 32.5093 111.289 32.4756L111.378 32.3565L111.47 32.2486L111.545 32.2002C111.579 32.1739 111.611 32.1453 111.641 32.1146C111.705 32.2523 111.755 32.3751 111.797 32.4868C111.835 32.5764 111.867 32.6684 111.894 32.7622C111.794 32.859 111.691 32.9595 111.591 33.0637C111.493 33.1685 111.388 33.2667 111.278 33.3577C111.16 33.4561 111.029 33.5375 110.89 33.5996C110.777 33.6486 110.657 33.6751 110.535 33.6778C110.413 33.6859 110.29 33.6672 110.176 33.623C110.061 33.5788 109.957 33.51 109.869 33.421C109.696 33.2022 109.6 32.9273 109.599 32.6431C109.598 32.5937 109.589 32.5448 109.574 32.498C109.56 32.4473 109.536 32.4004 109.503 32.3603L109.432 32.4347C109.399 32.4664 109.368 32.5 109.339 32.5352C109.279 32.5798 109.208 32.6394 109.122 32.7101L108.82 32.9595C108.663 33.1269 108.535 33.2609 108.428 33.3689L108.201 33.5959C108.104 33.6844 108.001 33.7641 107.891 33.8341C107.777 33.9122 107.646 33.9941 107.496 34.076C107.404 34.1281 107.326 34.169 107.258 34.1988C107.212 34.2231 107.163 34.2383 107.112 34.2435C107.027 34.251 106.942 34.2404 106.861 34.2122C106.78 34.1841 106.706 34.139 106.643 34.0797C106.587 34.0107 106.544 33.9308 106.518 33.8445C106.492 33.7583 106.482 33.6674 106.49 33.5773C106.487 33.4489 106.512 33.3215 106.564 33.2051C106.623 33.0818 106.701 32.9697 106.795 32.8739C106.798 32.8255 106.798 32.777 106.795 32.7287C106.8 32.7041 106.8 32.6788 106.795 32.6543C106.795 32.6282 106.771 32.6022 106.753 32.5687C106.735 32.5352 106.696 32.431 106.66 32.3491L106.554 32.0886C106.582 32.055 106.607 32.0189 106.628 31.9806L106.728 31.8094Z" fill="#1D1D1B"/>
<path d="M111.634 32.1258L111.662 32.07C111.687 32.0328 111.723 31.9881 111.765 31.9323L111.915 31.7388C112.251 31.4027 112.558 31.0366 112.833 30.6445C113.158 30.1766 113.455 29.6881 113.722 29.1819C113.766 29.1165 113.805 29.0482 113.839 28.9772C113.894 28.8759 113.942 28.7715 113.985 28.6645C113.992 28.6453 113.992 28.6242 113.985 28.605C113.976 28.5966 113.965 28.5903 113.954 28.5865C113.942 28.5826 113.93 28.5813 113.918 28.5827C113.874 28.5853 113.831 28.594 113.79 28.6087C113.744 28.6213 113.698 28.6288 113.651 28.6311H112.822C112.786 28.6311 112.73 28.6311 112.648 28.6311H112.47L112.349 28.5752L112.239 28.5231C112.192 28.5085 112.15 28.483 112.114 28.4487C112.1 28.4346 112.09 28.4178 112.082 28.3993C112.075 28.3807 112.071 28.3608 112.071 28.3408C112.063 28.11 112.093 27.8796 112.16 27.6597C112.176 27.5946 112.212 27.5366 112.262 27.4944C112.312 27.4521 112.374 27.4279 112.438 27.4252C112.562 27.4252 112.676 27.4252 112.794 27.4252C112.89 27.4345 112.987 27.4494 113.082 27.4699C113.149 27.4699 113.21 27.4438 113.267 27.4289C113.369 27.4224 113.471 27.4224 113.573 27.4289C113.639 27.4349 113.704 27.4461 113.768 27.4624L113.936 27.4252L114.121 27.388L114.338 27.455C114.494 27.4364 114.658 27.2093 114.836 26.7739C115.014 26.3384 115.191 26.1226 115.398 26.1226C115.443 26.1201 115.489 26.1282 115.532 26.1462C115.574 26.1642 115.612 26.1917 115.643 26.2268C115.706 26.3146 115.736 26.4228 115.729 26.532C115.72 26.6761 115.69 26.818 115.64 26.9525C115.59 27.0793 115.556 27.2117 115.536 27.347C115.545 27.368 115.557 27.387 115.572 27.4029C115.591 27.4313 115.613 27.4565 115.64 27.4773C115.669 27.5 115.689 27.5331 115.697 27.5703C115.703 27.6247 115.703 27.6797 115.697 27.7341C115.701 27.9494 115.689 28.1647 115.661 28.378C115.636 28.5268 115.597 28.605 115.544 28.6087L115.095 28.7055C115.095 28.7539 115.074 28.8097 115.063 28.8767C115.053 28.9437 115.031 29.0218 115.01 29.1112C114.932 29.3419 114.85 29.6359 114.754 29.9932C114.658 30.3505 114.558 30.7711 114.444 31.2586C114.373 31.6308 114.316 31.9621 114.281 32.2003C114.251 32.3612 114.232 32.5241 114.224 32.6878C114.22 32.7456 114.231 32.8034 114.256 32.8553C114.266 32.8731 114.281 32.8877 114.298 32.8976C114.316 32.9074 114.335 32.9121 114.355 32.9111C114.461 32.861 114.559 32.7931 114.644 32.7101C114.811 32.5762 115.042 32.3752 115.337 32.1109L115.597 32.7511C115.54 32.8158 115.478 32.8756 115.412 32.9297C115.321 33.0098 115.226 33.0843 115.127 33.153C115.081 33.2051 115.028 33.261 114.96 33.3242C114.893 33.3875 114.821 33.4582 114.74 33.5438L114.505 33.8192C114.426 33.9123 114.348 34.0053 114.27 34.0909C114.181 34.1968 114.075 34.285 113.957 34.3514C113.869 34.4008 113.772 34.4288 113.672 34.4333C113.591 34.4397 113.51 34.4265 113.435 34.3949C113.36 34.3633 113.292 34.3141 113.238 34.251C113.13 34.0921 113.078 33.8985 113.092 33.7039C113.092 33.4322 113.092 33.2014 113.121 33.0042C113.132 32.8425 113.161 32.6827 113.206 32.5278C113.222 32.4967 113.235 32.4644 113.245 32.431C113.247 32.3684 113.254 32.3062 113.267 32.2449C113.267 32.163 113.295 32.0737 113.313 31.9658L113.398 31.4224L113.551 31.0502C113.551 31.0279 113.551 31.0056 113.498 30.987L113.434 31.0279C113.357 31.1534 113.27 31.2717 113.174 31.3815C113.055 31.5136 112.928 31.6379 112.794 31.7536L112.103 32.4422C112.083 32.4793 112.059 32.5142 112.032 32.5464C111.997 32.5948 111.958 32.6506 111.911 32.7213L111.829 32.5092C111.794 32.4236 111.762 32.3231 111.726 32.2151C111.717 32.1885 111.706 32.1624 111.694 32.137C111.675 32.1305 111.654 32.1268 111.634 32.1258Z" fill="#1D1D1B"/>
<path d="M115.316 32.1257L115.355 32.0773L115.373 32.0066C115.562 31.7616 115.774 31.5371 116.006 31.3367C116.236 31.1377 116.445 30.9131 116.629 30.6667C116.666 30.6011 116.719 30.5462 116.782 30.5067C116.835 30.4752 116.895 30.4585 116.956 30.4583C117.096 30.454 117.233 30.4971 117.347 30.5811C117.461 30.6724 117.537 30.8055 117.561 30.9533L117.646 31.3851C117.671 31.5339 117.696 31.6791 117.714 31.8279C117.742 31.921 117.781 32.0624 117.824 32.2485C117.845 32.3601 117.879 32.4687 117.924 32.5723C117.945 32.6163 117.98 32.6516 118.023 32.6728C118.077 32.6936 118.133 32.7037 118.19 32.7026C118.274 32.7016 118.357 32.6865 118.436 32.6579C118.531 32.6222 118.619 32.5693 118.696 32.5016C118.763 32.442 118.831 32.3788 118.906 32.3192L119.119 32.1331L119.386 32.7733C119.297 32.8632 119.203 32.9477 119.105 33.0264C118.987 33.1231 118.845 33.2311 118.681 33.3576C118.535 33.474 118.379 33.5773 118.215 33.6665C118.126 33.7212 118.027 33.7554 117.924 33.767C117.655 33.7964 117.384 33.7461 117.141 33.6219C116.949 33.3868 116.812 33.1075 116.743 32.8068C116.72 32.7608 116.694 32.7172 116.664 32.6765C116.629 32.6244 116.586 32.5649 116.543 32.4942C116.503 32.4111 116.457 32.3314 116.405 32.256C116.365 32.2001 116.33 32.1741 116.305 32.1741C116.198 32.1925 116.099 32.2444 116.02 32.3229C115.862 32.4608 115.715 32.6114 115.579 32.7733L115.497 32.5574C115.465 32.4755 115.43 32.3751 115.394 32.2671C115.386 32.2399 115.376 32.2136 115.362 32.189C115.35 32.1653 115.335 32.1439 115.316 32.1257ZM118.091 26.6435C118.177 26.6355 118.263 26.6606 118.333 26.7142C118.359 26.7395 118.38 26.7707 118.394 26.8055C118.407 26.8402 118.413 26.8777 118.411 26.9152C118.383 27.0454 118.361 27.1534 118.343 27.2427C118.297 27.4102 118.262 27.5442 118.226 27.6521C118.19 27.76 118.169 27.8345 118.151 27.8828C118.113 27.9808 118.057 28.0704 117.988 28.1471C117.915 28.2279 117.831 28.2969 117.739 28.3518C117.658 28.4125 117.573 28.4648 117.482 28.5081C117.439 28.534 117.39 28.5481 117.34 28.549L117.123 28.523H116.92C116.854 28.4813 116.806 28.4147 116.785 28.3369C116.749 28.2167 116.732 28.0908 116.735 27.9647C116.761 27.7676 116.846 27.584 116.977 27.44C117.141 27.2315 117.283 27.1162 117.408 27.105L117.671 26.77C117.724 26.7332 117.783 26.7067 117.845 26.6919C117.924 26.6594 118.007 26.6394 118.091 26.6323V26.6435Z" fill="#1D1D1B"/>
<path d="M119.112 32.1258C119.148 32.0865 119.182 32.0442 119.212 31.9992C119.244 31.9434 119.283 31.8839 119.325 31.8206L119.838 31.4484C119.926 31.3412 120.021 31.2405 120.122 31.1469L120.603 30.6966C120.632 30.6344 120.668 30.5757 120.709 30.5217C120.765 30.4505 120.827 30.3845 120.894 30.3244C120.955 30.2612 121.019 30.2053 121.079 30.1532C121.14 30.1011 121.2 30.049 121.254 29.9969C121.307 29.9448 121.382 29.8592 121.442 29.7885C121.503 29.7178 121.563 29.6508 121.624 29.5875C121.69 29.5257 121.764 29.4743 121.844 29.4349C121.921 29.3972 122.005 29.3781 122.09 29.3791C122.165 29.3745 122.24 29.3872 122.31 29.4163C122.332 29.425 122.352 29.4395 122.367 29.4584C122.382 29.4774 122.392 29.5 122.396 29.5242C122.349 29.6322 122.303 29.7364 122.253 29.8443L122.296 29.9076C122.488 29.8257 122.652 29.7699 122.751 29.7327C122.82 29.7064 122.892 29.6877 122.965 29.6768C123.101 29.6669 123.237 29.6896 123.364 29.7431C123.49 29.7966 123.603 29.8796 123.694 29.9857C123.874 30.2593 123.959 30.5888 123.936 30.9199C123.934 31.0136 123.924 31.107 123.908 31.199C123.887 31.3164 123.858 31.4321 123.822 31.5452C123.787 31.6657 123.739 31.7817 123.68 31.8913C123.641 31.9659 123.594 32.0348 123.538 32.096C123.548 32.1426 123.569 32.1859 123.598 32.2225C123.609 32.235 123.622 32.2449 123.637 32.2513C123.651 32.2578 123.667 32.2607 123.683 32.2598C123.722 32.2586 123.76 32.2471 123.794 32.2263C123.842 32.1957 123.887 32.1608 123.929 32.1221C123.972 32.2225 124.014 32.3305 124.057 32.4384C124.1 32.5463 124.142 32.6543 124.189 32.7622L123.954 32.9781C123.879 33.0451 123.801 33.1121 123.715 33.179C123.63 33.258 123.532 33.3221 123.427 33.3689C123.342 33.4078 123.25 33.428 123.157 33.4284C123.067 33.431 122.979 33.405 122.904 33.354C122.836 33.297 122.782 33.2227 122.748 33.1381C122.631 33.2954 122.496 33.4367 122.346 33.5587C122.185 33.6863 122.009 33.7926 121.823 33.875C121.725 33.9236 121.624 33.9659 121.52 34.0016C121.44 34.0296 121.356 34.0447 121.271 34.0462C121.228 34.0517 121.185 34.0617 121.143 34.076C121.092 34.0918 121.04 34.1006 120.987 34.1021C120.857 34.0996 120.729 34.0688 120.612 34.0118C120.494 33.9548 120.389 33.8727 120.304 33.7708C120.208 33.6743 120.132 33.5587 120.079 33.4309C120.027 33.3031 119.999 33.1656 119.998 33.0265C120.004 32.8764 120.028 32.7276 120.069 32.5836C120.102 32.4779 120.127 32.3696 120.144 32.2598C120.144 32.2451 120.141 32.2307 120.135 32.2172C120.13 32.2038 120.122 32.1917 120.112 32.1816C120.101 32.1705 120.088 32.1621 120.074 32.1569C120.06 32.1518 120.045 32.15 120.03 32.1518C119.97 32.1742 119.915 32.2097 119.87 32.256L119.514 32.5538C119.514 32.5724 119.485 32.5984 119.468 32.6357C119.444 32.6811 119.415 32.7236 119.382 32.7622C119.347 32.653 119.308 32.5451 119.265 32.4384C119.215 32.323 119.18 32.2151 119.112 32.1258ZM122.314 30.8529C122.277 30.8703 122.244 30.8957 122.218 30.9274C122.173 30.9784 122.133 31.0331 122.097 31.0911C122.033 31.2003 121.962 31.3157 121.883 31.4372C121.839 31.4901 121.786 31.5342 121.727 31.5675C121.667 31.5993 121.604 31.6218 121.538 31.6345C121.496 31.6345 121.446 31.6829 121.399 31.7685C121.336 31.8857 121.287 32.0107 121.254 32.1407C121.21 32.262 121.174 32.3863 121.147 32.5128C121.127 32.597 121.117 32.6831 121.115 32.7696C121.11 32.8221 121.115 32.8752 121.131 32.9252C121.147 32.9753 121.173 33.0212 121.207 33.0599C121.246 33.0955 121.291 33.1225 121.34 33.1391C121.389 33.1558 121.441 33.1618 121.492 33.1567C121.692 33.159 121.888 33.098 122.054 32.9818C122.246 32.839 122.409 32.6582 122.534 32.4496L122.734 32.2002C122.774 32.1637 122.804 32.116 122.819 32.0625C122.846 31.9871 122.869 31.9101 122.887 31.8318L123.008 31.4335C122.975 31.3223 122.937 31.213 122.894 31.106C122.874 31.0457 122.837 30.9936 122.787 30.9571C122.741 30.9343 122.692 30.9192 122.641 30.9125C122.531 30.8829 122.419 30.8593 122.307 30.8418L122.314 30.8529Z" fill="#1D1D1B"/>
<path d="M123.915 32.1257C123.936 32.0884 123.96 32.0523 123.986 32.0178L124.089 31.8764C124.132 31.8392 124.189 31.787 124.26 31.7163L124.498 31.4744L124.793 31.1283L125.227 30.637L125.494 30.3355L125.871 29.8927C125.98 29.7517 126.116 29.6363 126.27 29.554C126.41 29.4799 126.565 29.4416 126.722 29.4423C126.789 29.4361 126.856 29.4471 126.918 29.4743C126.98 29.5015 127.035 29.5442 127.077 29.5986C127.161 29.7332 127.201 29.8925 127.191 30.0527C127.173 30.2597 127.135 30.4642 127.077 30.6631C127.004 30.9658 126.885 31.364 126.722 31.8578L126.608 32.122C126.585 32.1731 126.569 32.2268 126.558 32.282C126.554 32.3167 126.554 32.3516 126.558 32.3863C126.561 32.4255 126.578 32.4623 126.604 32.4905C126.627 32.4741 126.649 32.4554 126.668 32.4346L126.736 32.3528C126.78 32.2714 126.835 32.1974 126.9 32.1332C126.971 32.0587 127.06 31.9731 127.163 31.8801C127.205 31.7952 127.258 31.7164 127.319 31.6456C127.385 31.5693 127.457 31.4984 127.533 31.4335C127.559 31.4056 127.582 31.3758 127.604 31.3442C127.636 31.2988 127.67 31.2553 127.707 31.2139C127.772 31.1463 127.841 31.0829 127.913 31.0241C127.992 30.962 128.084 30.8951 128.191 30.8231C128.296 30.7663 128.404 30.7154 128.515 30.6705C128.594 30.6364 128.678 30.6175 128.764 30.6147C128.889 30.6134 129.013 30.6495 129.119 30.7189C129.237 30.8008 129.331 30.9138 129.393 31.0464C129.482 31.333 129.564 31.601 129.646 31.8466C129.68 31.9617 129.734 32.0691 129.806 32.163C129.831 32.1948 129.861 32.2206 129.896 32.2386C129.931 32.2566 129.97 32.2664 130.009 32.2672C130.063 32.2686 130.116 32.2571 130.165 32.2337C130.215 32.2085 130.26 32.173 130.297 32.1295L130.56 32.7696L130.329 32.9706L130.098 33.1716C130.014 33.2564 129.916 33.3256 129.81 33.3763C129.723 33.419 129.628 33.4412 129.532 33.4412C129.436 33.4412 129.341 33.419 129.255 33.3763C129.158 33.3296 129.075 33.2579 129.013 33.1678C128.961 33.1056 128.917 33.0369 128.881 32.9631C128.828 32.8664 128.767 32.7398 128.696 32.591C128.625 32.5167 128.56 32.4371 128.5 32.3528L128.244 32.0029L128.184 31.9806C128.096 32.0113 128.012 32.0538 127.935 32.1071C127.841 32.1713 127.753 32.2435 127.671 32.323C127.54 32.4543 127.396 32.5704 127.241 32.6691C127.167 32.702 127.105 32.7579 127.063 32.8291C126.969 32.9829 126.862 33.1274 126.743 33.2609C126.594 33.4358 126.405 33.6331 126.181 33.8861C126.124 33.9457 126.067 34.0052 126.007 34.0611L125.836 34.2323C125.779 34.2825 125.712 34.3193 125.64 34.3402C125.561 34.362 125.48 34.372 125.398 34.37C125.22 34.37 125.124 34.3067 125.11 34.1802C125.092 34.0536 125.078 33.9234 125.067 33.808C125.131 33.6144 125.206 33.3725 125.291 33.0636C125.377 32.7547 125.473 32.4346 125.583 32.0439C125.585 32.0118 125.592 31.9803 125.605 31.9508C125.605 31.9099 125.64 31.8578 125.661 31.7945C125.68 31.7434 125.695 31.6912 125.708 31.6382C125.711 31.5998 125.711 31.5612 125.708 31.5228C125.708 31.5081 125.706 31.4934 125.7 31.4798C125.695 31.4663 125.686 31.4543 125.676 31.4446C125.644 31.4237 125.606 31.4145 125.569 31.4186C125.504 31.4269 125.444 31.4555 125.395 31.5005C125.299 31.5792 125.21 31.6677 125.131 31.7647C125.007 31.9061 124.907 32.0141 124.833 32.0922C124.788 32.1458 124.737 32.1922 124.68 32.2299C124.625 32.2742 124.573 32.3214 124.523 32.3714L124.32 32.5723L124.281 32.6542C124.257 32.6997 124.229 32.7422 124.196 32.7808C124.171 32.6928 124.14 32.607 124.103 32.524C124.043 32.3937 123.986 32.2672 123.915 32.1257Z" fill="#1D1D1B"/>
</svg>
