<svg width="24" height="24" viewBox="0 0 24 24" fill="none" xmlns="http://www.w3.org/2000/svg">
<path d="M17.5 5C18.3125 5 19 5.6875 19 6.5V17.5C19 18.3438 18.3125 19 17.5 19H6.5C5.65625 19 5 18.3438 5 17.5V6.5C5 5.6875 5.65625 5 6.5 5H17.5ZM15.9688 9.96875C16.3438 9.6875 16.7188 9.3125 17 8.90625C16.625 9.0625 16.2188 9.1875 15.8125 9.21875C16.2188 8.96875 16.5625 8.59375 16.7188 8.09375C16.3125 8.34375 15.875 8.5 15.4062 8.59375C15.0312 8.1875 14.5 7.9375 13.9062 7.9375C12.6562 7.9375 11.625 9.09375 11.9062 10.4688C10.2188 10.375 8.6875 9.5625 7.6875 8.3125C7.5 8.625 7.40625 8.96875 7.40625 9.375C7.40625 10.0625 7.75 10.6875 8.3125 11.0625C7.96875 11.0625 7.65625 10.9688 7.40625 10.8125V10.8438C7.40625 11.8438 8.09375 12.6562 9.03125 12.8438C8.71875 12.9375 8.4375 12.9375 8.09375 12.875C8.375 13.6875 9.125 14.2812 10.0312 14.3125C9.3125 14.8438 8.4375 15.1875 7.46875 15.1875C7.3125 15.1875 7.15625 15.1875 7 15.1562C7.90625 15.75 8.96875 16.0625 10.125 16.0625C13.9062 16.0625 15.9688 12.9375 15.9688 10.25C15.9688 10.1562 15.9688 10.0625 15.9688 9.96875Z" fill="#E2E2E2"/>
</svg>
