<svg width="24" height="24" viewBox="0 0 24 24" fill="none" xmlns="http://www.w3.org/2000/svg">
<path d="M12 7.84375C13.0938 7.84375 14.125 8.28125 14.9062 9.0625C15.6875 9.84375 16.1562 10.875 16.1562 11.9688C16.1562 14.25 14.25 16.0938 12 16.0938H11.9688C11.25 16.0938 10.5312 15.9062 9.875 15.5312L9.75 15.4375L8.1875 15.8438L8.59375 14.3125L8.5 14.1562C8.09375 13.5 7.875 12.75 7.875 11.9688C7.875 9.6875 9.71875 7.84375 12 7.84375ZM14.4062 13.75C14.5 13.4375 14.5 13.1875 14.4688 13.1562C14.4375 13.0938 14.375 13.0625 14.25 13C14.125 12.9375 13.5 12.625 13.4062 12.5938C13.2812 12.5625 13.1875 12.5312 13.125 12.6562C13.0312 12.7812 12.8125 13.0625 12.7188 13.1562C12.6562 13.2188 12.5938 13.25 12.4688 13.1875C11.7188 12.8125 11.25 12.5312 10.7812 11.6875C10.6562 11.4688 10.9062 11.5 11.125 11.0312C11.1875 10.9375 11.1562 10.875 11.125 10.8125C11.0938 10.75 10.8438 10.125 10.75 9.90625C10.6562 9.65625 10.5312 9.6875 10.4688 9.6875C10.4062 9.6875 10.3125 9.6875 10.2188 9.6875C10.1562 9.6875 10 9.71875 9.90625 9.84375C9.78125 9.96875 9.46875 10.25 9.46875 10.875C9.46875 11.4688 9.90625 12.0625 9.96875 12.1562C10.0312 12.2188 10.8438 13.4688 12.0938 14.0312C12.875 14.3438 13.1875 14.375 13.5625 14.3125C13.8125 14.2812 14.3125 14.0312 14.4062 13.75ZM17.5 5C18.3125 5 19 5.6875 19 6.5V17.5C19 18.3438 18.3125 19 17.5 19H6.5C5.65625 19 5 18.3438 5 17.5V6.5C5 5.6875 5.65625 5 6.5 5H17.5ZM11.9688 16.9375C14.7188 16.9375 17 14.7188 17 11.9688C17 10.6562 16.4375 9.40625 15.5 8.46875C14.5625 7.53125 13.3125 7 11.9688 7C9.25 7 7.03125 9.25 7.03125 11.9688C7.03125 12.8438 7.25 13.6875 7.6875 14.4375L7 17L9.625 16.3125C10.3438 16.7188 11.1562 16.9375 11.9688 16.9375Z" fill="#E2E2E2"/>
</svg>
